<?xml version="1.0" encoding="UTF-8"?>
<svg version="1.1" xmlns="http://www.w3.org/2000/svg" width="225" height="225">
<path d="M0 0 C74.25 0 148.5 0 225 0 C225 74.25 225 148.5 225 225 C150.75 225 76.5 225 0 225 C0 150.75 0 76.5 0 0 Z " fill="#3466FC" transform="translate(0,0)"/>
<path d="M0 0 C4.95 0 9.9 0 15 0 C15 6.93 15 13.86 15 21 C21.6 21 28.2 21 35 21 C35 14.07 35 7.14 35 0 C39.95 0 44.9 0 50 0 C50 18.48 50 36.96 50 56 C45.05 56 40.1 56 35 56 C35 49.07 35 42.14 35 35 C28.73 35 22.46 35 16 35 C16 41.93 16 48.86 16 56 C10.72 56 5.44 56 0 56 C0 37.52 0 19.04 0 0 Z " fill="#FBFCFD" transform="translate(22,70)"/>
<path d="M0 0 C4.89443514 2.90176643 8.25152633 6.51531466 10.70703125 11.671875 C11.45703125 15.046875 11.45703125 15.046875 11.45703125 26.046875 C-1.90796875 26.541875 -1.90796875 26.541875 -15.54296875 27.046875 C-13.12189448 31.18584326 -13.12189448 31.18584326 -10.23828125 31.54296875 C-5.21340072 31.4284198 -1.63559215 31.32097372 2.45703125 28.046875 C5.09703125 30.356875 7.73703125 32.666875 10.45703125 35.046875 C7.07605142 40.57938745 2.51543639 42.45792442 -3.54296875 44.046875 C-10.639408 45.02128205 -16.72956478 44.42532482 -22.54296875 40.046875 C-28.70289466 34.43476859 -31.19046054 29.48847843 -31.85546875 21.109375 C-31.62962777 13.81188819 -28.68048102 8.18438727 -23.54296875 3.046875 C-16.98425043 -2.25591853 -7.90367833 -2.96236177 0 0 Z " fill="#F8FAFC" transform="translate(171.54296875,82.953125)"/>
<path d="M0 0 C4.95 0 9.9 0 15 0 C15 18.48 15 36.96 15 56 C10.05 56 5.1 56 0 56 C0 37.52 0 19.04 0 0 Z " fill="#FCFCFD" transform="translate(188,70)"/>
<path d="M0 0 C4.95 0 9.9 0 15 0 C15 18.48 15 36.96 15 56 C10.05 56 5.1 56 0 56 C0 37.52 0 19.04 0 0 Z " fill="#FBFCFD" transform="translate(121,70)"/>
<path d="M0 0 C4.95 0 9.9 0 15 0 C15 18.48 15 36.96 15 56 C10.05 56 5.1 56 0 56 C0 37.52 0 19.04 0 0 Z " fill="#FCFDFD" transform="translate(100,70)"/>
<path d="M0 0 C4.95 0 9.9 0 15 0 C15 11.55 15 23.1 15 35 C10.05 35 5.1 35 0 35 C0 23.45 0 11.9 0 0 Z " fill="#FBFBFD" transform="translate(79,91)"/>
<path d="M0 0 C2.9375 2.0625 2.9375 2.0625 5 5 C5 8.54361243 4.65850044 10.86591591 2.875 13.9375 C-0.18452459 15.6712306 -2.56817525 15.42145216 -6 15 C-8.4375 13.4375 -8.4375 13.4375 -10 11 C-10.56783945 7.02512383 -10.62340519 4.93510779 -8.375 1.5625 C-5.24316508 -0.49791771 -3.68455227 -0.6767545 0 0 Z " fill="#F6F8FB" transform="translate(89,71)"/>
<path d="M0 0 C3.375 1.0625 3.375 1.0625 5.375 2.6875 C6.84481805 6.17831787 6.35913921 8.45398956 5.375 12.0625 C3.12082958 14.6506216 1.76979021 15.00492643 -1.625 15.5 C-4.625 15.0625 -4.625 15.0625 -7 13.4375 C-9.13823431 10.31238831 -9.3079669 8.78087535 -8.625 5.0625 C-5.92665364 1.21940065 -4.75860157 0.08204485 0 0 Z " fill="#EAEEF7" transform="translate(153.625,139.9375)"/>
<path d="M0 0 C2.375 1.3125 2.375 1.3125 4 4 C4.32924499 7.69073017 4.22932778 11.30527466 4 15 C2.20866022 15.05391993 0.41686101 15.09275571 -1.375 15.125 C-2.37273437 15.14820313 -3.37046875 15.17140625 -4.3984375 15.1953125 C-7 15 -7 15 -9 13 C-9.375 10.5625 -9.375 10.5625 -9 8 C-7 6.1875 -7 6.1875 -5 5 C-5.99 4.67 -6.98 4.34 -8 4 C-8 3.01 -8 2.02 -8 1 C-5.15916359 -0.42041821 -3.14522722 -0.31452272 0 0 Z " fill="#E5EBF7" transform="translate(190,140)"/>
<path d="M0 0 C2.475 0.495 2.475 0.495 5 1 C6.03125 0.79375 7.0625 0.5875 8.125 0.375 C11 0 11 0 12.66796875 1.08984375 C14.57428683 3.82353741 14.29370537 5.89513342 14.1875 9.1875 C14.16042969 10.27417969 14.13335937 11.36085937 14.10546875 12.48046875 C14.07066406 13.31191406 14.03585938 14.14335937 14 15 C12.35 15 10.7 15 9 15 C9 11.37 9 7.74 9 4 C8.01 4.33 7.02 4.66 6 5 C5.67 8.3 5.34 11.6 5 15 C3.35 15 1.7 15 0 15 C0 10.05 0 5.1 0 0 Z " fill="#E1E8F7" transform="translate(31,140)"/>
<path d="M0 0 C2.28062828 3.42094242 2.21925007 4.68187222 2.125 8.6875 C2.10695313 9.68136719 2.08890625 10.67523438 2.0703125 11.69921875 C2.03550781 12.83810547 2.03550781 12.83810547 2 14 C0.35 14 -1.3 14 -3 14 C-3.33 10.7 -3.66 7.4 -4 4 C-4.66 4 -5.32 4 -6 4 C-6.33 7.3 -6.66 10.6 -7 14 C-8.65 14 -10.3 14 -12 14 C-12 9.38 -12 4.76 -12 0 C-4.0776699 -1.39805825 -4.0776699 -1.39805825 0 0 Z " fill="#E5EBF7" transform="translate(102,141)"/>
<path d="M0 0 C1.6796875 1.12890625 1.6796875 1.12890625 3 3 C3.29296875 5.91796875 3.29296875 5.91796875 3.1875 9.1875 C3.16042969 10.27417969 3.13335937 11.36085937 3.10546875 12.48046875 C3.07066406 13.31191406 3.03585938 14.14335937 3 15 C1.37536158 15.05395478 -0.24978541 15.09277195 -1.875 15.125 C-2.77992187 15.14820313 -3.68484375 15.17140625 -4.6171875 15.1953125 C-7 15 -7 15 -9 13 C-9.375 10.5625 -9.375 10.5625 -9 8 C-7 6.1875 -7 6.1875 -5 5 C-5.99 4.67 -6.98 4.34 -8 4 C-8 3.01 -8 2.02 -8 1 C-5.20129973 -0.39935013 -3.09501208 -0.25265405 0 0 Z " fill="#D7E0F7" transform="translate(117,140)"/>
<path d="M0 0 C3.375 0.9375 3.375 0.9375 5.375 3.9375 C5.5 6.625 5.5 6.625 5.375 8.9375 C2.735 9.2675 0.095 9.5975 -2.625 9.9375 C-0.315 10.2675 1.995 10.5975 4.375 10.9375 C4.045 12.2575 3.715 13.5775 3.375 14.9375 C-2.875 15.41826923 -2.875 15.41826923 -6.0625 13.375 C-8.22896028 9.99532196 -8.18788002 7.87766013 -7.625 3.9375 C-5.3368323 0.27643167 -4.34846249 -0.07497349 0 0 Z " fill="#E0E7F8" transform="translate(68.625,140.0625)"/>
<path d="M0 0 C3.25696479 0.41755959 4.63443291 0.63443291 7 3 C7.1953125 5.8203125 7.1953125 5.8203125 7.125 9.125 C7.10695312 10.22070312 7.08890625 11.31640625 7.0703125 12.4453125 C7.04710937 13.28835937 7.02390625 14.13140625 7 15 C5.68 15 4.36 15 3 15 C2.67 11.7 2.34 8.4 2 5 C1.01 5 0.02 5 -1 5 C-1.33 8.3 -1.66 11.6 -2 15 C-3.32 15 -4.64 15 -6 15 C-6 10.38 -6 5.76 -6 1 C-4.35 1 -2.7 1 -1 1 C-0.67 0.67 -0.34 0.34 0 0 Z " fill="#F6F8FA" transform="translate(170,140)"/>
<path d="M0 0 C1.32 0 2.64 0 4 0 C4 1.32 4 2.64 4 4 C4.99 4 5.98 4 7 4 C7 4.99 7 5.98 7 7 C6.01 7 5.02 7 4 7 C4 9.31 4 11.62 4 14 C4.99 14 5.98 14 7 14 C7 15.32 7 16.64 7 18 C4.125 18.1875 4.125 18.1875 1 18 C-1.13055316 14.80417026 -1.40484299 13.30339289 -1.75 9.5625 C-1.84796875 8.61503906 -1.9459375 7.66757813 -2.046875 6.69140625 C-1.99749793 3.8563396 -1.46829693 2.38880616 0 0 Z " fill="#E8EDF7" transform="translate(126,137)"/>
<path d="M0 0 C1.32 0 2.64 0 4 0 C4 1.32 4 2.64 4 4 C4.99 4 5.98 4 7 4 C7 4.99 7 5.98 7 7 C6.01 7 5.02 7 4 7 C4 9.31 4 11.62 4 14 C4.99 14 5.98 14 7 14 C7 15.32 7 16.64 7 18 C4.69 17.67 2.38 17.34 0 17 C-2.52941176 6.42245989 -2.52941176 6.42245989 -1 1 C-0.67 0.67 -0.34 0.34 0 0 Z " fill="#E9EEF7" transform="translate(51,137)"/>
<path d="M0 0 C1.65 0 3.3 0 5 0 C5 6.93 5 13.86 5 21 C3.35 21 1.7 21 0 21 C0 14.07 0 7.14 0 0 Z " fill="#E1E8F6" transform="translate(198,134)"/>
<path d="M0 0 C1.65 0 3.3 0 5 0 C5 6.6 5 13.2 5 20 C3.35 20 1.7 20 0 20 C0 13.4 0 6.8 0 0 Z " fill="#E2E8F7" transform="translate(22,135)"/>
<path d="M0 0 C2.375 1.75 2.375 1.75 4 4 C4 5.32 4 6.64 4 8 C-0.62 8 -5.24 8 -10 8 C-9 3 -9 3 -7.8125 1.1875 C-5.06937448 -0.60972017 -3.20418874 -0.45774125 0 0 Z " fill="#3E6DF8" transform="translate(165,93)"/>
<path d="M0 0 C0.99 0 1.98 0 3 0 C3 1.65 3 3.3 3 5 C1.68 5 0.36 5 -1 5 C-1 8.3 -1 11.6 -1 15 C-2.65 15 -4.3 15 -6 15 C-6 10.38 -6 5.76 -6 1 C-4.35 1 -2.7 1 -1 1 C-0.67 0.67 -0.34 0.34 0 0 Z " fill="#E3EAF6" transform="translate(84,140)"/>
<path d="M0 0 C0.86625 0.3403125 0.86625 0.3403125 1.75 0.6875 C0.76 1.3475 -0.23 2.0075 -1.25 2.6875 C-0.26 2.6875 0.73 2.6875 1.75 2.6875 C2.08 4.6675 2.41 6.6475 2.75 8.6875 C-0.625 9.3125 -0.625 9.3125 -4.25 9.6875 C-6.25 7.6875 -6.25 7.6875 -6.625 5.25 C-6.25 2.6875 -6.25 2.6875 -4.5 0.8125 C-2.25 -0.3125 -2.25 -0.3125 0 0 Z " fill="#C5D2F4" transform="translate(187.25,145.3125)"/>
<path d="M0 0 C0.66 0 1.32 0 2 0 C2.03738281 0.69867188 2.07476562 1.39734375 2.11328125 2.1171875 C2.17902344 3.02726563 2.24476563 3.93734375 2.3125 4.875 C2.37050781 5.77992188 2.42851562 6.68484375 2.48828125 7.6171875 C2.7882039 10.36221601 2.7882039 10.36221601 6 12 C5 13 5 13 2.625 13.25 C0 13 0 13 -1.8125 11.875 C-3.55957504 9.11646047 -3.39203417 7.20161236 -3 4 C-1.625 1.625 -1.625 1.625 0 0 Z " fill="#F2F5F9" transform="translate(148,141)"/>
<path d="M0 0 C1.32 0 2.64 0 4 0 C4 4.62 4 9.24 4 14 C2.68 14 1.36 14 0 14 C0 9.38 0 4.76 0 0 Z " fill="#FBFBFC" transform="translate(137,141)"/>
<path d="M0 0 C2.0625 0.4375 2.0625 0.4375 4 1 C4 2.98 4 4.96 4 7 C2.0625 7.5625 2.0625 7.5625 0 8 C-1 7 -1 7 -1.125 4 C-1 1 -1 1 0 0 Z " fill="#376AF7" transform="translate(151,144)"/>
<path d="M0 0 C2.5654594 2.5654594 2.54046087 4.47686668 3 8 C1.35 7.67 -0.3 7.34 -2 7 C-2.33 5.35 -2.66 3.7 -3 2 C-2.01 1.34 -1.02 0.68 0 0 Z " fill="#F6F8F8" transform="translate(111,147)"/>
</svg>
