<?xml version="1.0" encoding="UTF-8"?>
<svg version="1.1" xmlns="http://www.w3.org/2000/svg" width="108" height="106">
<path d="M0 0 C35.64 0 71.28 0 108 0 C108 34.98 108 69.96 108 106 C72.36 106 36.72 106 0 106 C0 71.02 0 36.04 0 0 Z " fill="#FDFDFD" transform="translate(0,0)"/>
<path d="M0 0 C6.86000533 3.09739634 10.9802728 7.4683581 14.328125 14.1640625 C14.40577656 16.0593357 14.46566225 17.95535734 14.515625 19.8515625 C14.81970382 24.27119086 15.14829254 26.59678555 18.390625 29.6640625 C21.44913367 32.67824496 21.85689967 34.88906016 22.015625 39.1640625 C21.73063615 44.98075801 20.32422904 47.97766779 16.328125 52.1640625 C15.668125 52.1640625 15.008125 52.1640625 14.328125 52.1640625 C14.3595459 52.73326416 14.3909668 53.30246582 14.42333984 53.88891602 C14.54907882 56.5010504 14.62640338 59.11254744 14.703125 61.7265625 C14.75339844 62.62181641 14.80367187 63.51707031 14.85546875 64.43945312 C14.98560307 70.36056453 14.08178167 73.54332272 10.01806641 77.90209961 C8.328125 79.1640625 8.328125 79.1640625 4.328125 80.1640625 C2.018125 77.5240625 -0.291875 74.8840625 -2.671875 72.1640625 C-2.1459375 71.1740625 -2.1459375 71.1740625 -1.609375 70.1640625 C-0.34334091 66.1127534 -0.96573018 63.33031695 -1.671875 59.1640625 C-8.1582339 59.22263007 -11.99312156 61.1069863 -16.46875 65.60009766 C-17.01015625 66.15745605 -17.5515625 66.71481445 -18.109375 67.2890625 C-23.60112516 72.87678815 -23.60112516 72.87678815 -27.875 74.0234375 C-30.66363325 74.03803767 -32.99361972 73.93485364 -35.671875 73.1640625 C-37.671875 71.1640625 -37.671875 71.1640625 -37.9375 68.8515625 C-37.93234375 67.9646875 -37.9271875 67.0778125 -37.921875 66.1640625 C-37.92703125 65.2771875 -37.9321875 64.3903125 -37.9375 63.4765625 C-37.671875 61.1640625 -37.671875 61.1640625 -35.671875 59.1640625 C-32.546875 59.0390625 -32.546875 59.0390625 -29.671875 59.1640625 C-29.713125 58.3803125 -29.754375 57.5965625 -29.796875 56.7890625 C-29.671875 54.1640625 -29.671875 54.1640625 -27.671875 52.1640625 C-24.546875 52.0390625 -24.546875 52.0390625 -21.671875 52.1640625 C-22.001875 51.5040625 -22.331875 50.8440625 -22.671875 50.1640625 C-24.35899798 45.10269356 -24.29332895 40.9248487 -22.546875 35.9765625 C-19.73693865 31.76165798 -17.16754566 28.82797489 -12.234375 27.515625 C-10.4870834 27.19840837 -8.73549044 26.90401942 -6.98046875 26.6328125 C-4.51404751 26.27914795 -4.51404751 26.27914795 -2.171875 24.5390625 C1.7627557 22.37501561 5.9262342 22.75893273 10.328125 23.1640625 C10.988125 23.4940625 11.648125 23.8240625 12.328125 24.1640625 C11.16103166 16.39367789 9.82872765 10.8073747 3.265625 5.8515625 C-1.9868295 2.83419502 -6.72555966 2.38883917 -12.671875 3.1640625 C-18.27625734 5.37908244 -21.87845434 8.80069484 -24.671875 14.1640625 C-26.48507899 20.05697547 -26.158459 25.5692485 -23.671875 31.1640625 C-23.671875 32.1540625 -23.671875 33.1440625 -23.671875 34.1640625 C-26.671875 33.1640625 -26.671875 33.1640625 -27.828125 31.55078125 C-29.98010915 25.46345571 -29.8928965 17.39168919 -27.609375 11.35546875 C-21.57444723 1.63070742 -11.16201068 -3.49220802 0 0 Z " fill="#0F0F0F" transform="translate(59.671875,10.8359375)"/>
<path d="M0 0 C1.33804688 0.04060547 1.33804688 0.04060547 2.703125 0.08203125 C3.37859375 0.11683594 4.0540625 0.15164062 4.75 0.1875 C4.09 1.8375 3.43 3.4875 2.75 5.1875 C1.5434375 5.1565625 1.5434375 5.1565625 0.3125 5.125 C-2.18354885 4.89116379 -2.18354885 4.89116379 -3.25 6.1875 C-3.29063832 7.85367115 -3.292721 9.52138095 -3.25 11.1875 C0.22147842 11.93707157 0.22147842 11.93707157 3.75 12.1875 C4.059375 11.07375 4.36875 9.96 4.6875 8.8125 C5.75 5.1875 5.75 5.1875 6.75 3.1875 C9.07758311 4.11853324 10.49357132 4.84132128 12 6.875 C13.07365701 10.18544246 13.1085013 12.72198741 12.75 16.1875 C10.72333762 19.89140021 9.26955484 21.84113011 5.75 24.1875 C5.30794437 26.2299091 5.30794437 26.2299091 5.37890625 28.58203125 C5.36150391 29.45537109 5.34410156 30.32871094 5.32617188 31.22851562 C5.31711517 33.06443817 5.31185733 34.9003837 5.31054688 36.73632812 C5.21828771 41.0661463 5.13585046 43.55388462 2.83984375 47.32421875 C0.75 49.1875 0.75 49.1875 -1.25 49.1875 C-2.9375 47.4375 -2.9375 47.4375 -4.25 45.1875 C-3.97057667 42.20698452 -2.65321868 39.80684154 -1.25 37.1875 C-1.78625 36.630625 -2.3225 36.07375 -2.875 35.5 C-3.32875 34.736875 -3.7825 33.97375 -4.25 33.1875 C-3.5 30.625 -3.5 30.625 -2.25 28.1875 C-1.92 27.1975 -1.59 26.2075 -1.25 25.1875 C-1.971875 25.125625 -2.69375 25.06375 -3.4375 25 C-7.76596565 23.74955437 -10.08205392 20.91161088 -12.5625 17.25 C-13.53356741 14.33679778 -13.6172328 12.24777335 -13.25 9.1875 C-9.96705423 3.20784877 -7.02956085 -0.27748267 0 0 Z " fill="#F7F7F7" transform="translate(65.25,37.8125)"/>
<path d="M0 0 C0.8971875 0.309375 0.8971875 0.309375 1.8125 0.625 C1.4825 1.615 1.1525 2.605 0.8125 3.625 C0.25465551 9.25708383 0.42247574 13.87896604 3.8125 18.625 C6.86289221 20.52706849 6.86289221 20.52706849 9.8125 21.625 C8.57763672 23.140625 8.57763672 23.140625 6.8125 24.625 C4.80126953 24.671875 4.80126953 24.671875 2.5703125 24.375 C-0.29475466 24.27760395 -1.71882061 24.30922815 -4.11816406 25.92578125 C-5.95167409 27.75624727 -7.64638858 29.64098686 -9.3125 31.625 C-15.17609589 38.51239835 -15.17609589 38.51239835 -20.1171875 39.0625 C-21.13039063 38.918125 -22.14359375 38.77375 -23.1875 38.625 C-23.1875 35.985 -23.1875 33.345 -23.1875 30.625 C-20.8775 30.625 -18.5675 30.625 -16.1875 30.625 C-16.1875 28.645 -16.1875 26.665 -16.1875 24.625 C-15.053125 24.356875 -13.91875 24.08875 -12.75 23.8125 C-11.574375 23.420625 -10.39875 23.02875 -9.1875 22.625 C-7.85416667 19.625 -7.85416667 19.625 -9.1875 16.625 C-9.74298996 11.84414375 -9.64924709 8.50072723 -7.375 4.1875 C-3.31515957 -0.56831307 -3.31515957 -0.56831307 0 0 Z " fill="#F5F5F5" transform="translate(49.1875,42.375)"/>
<path d="M0 0 C0.61875 0.33 1.2375 0.66 1.875 1 C0.885 2.485 0.885 2.485 -0.125 4 C-1.115 3.67 -2.105 3.34 -3.125 3 C-9.48591564 2.20912239 -14.16498423 2.73995842 -19.43359375 6.5078125 C-23.38480926 9.99364235 -25.61480606 13.77051209 -26.125 19 C-26.37357913 23.64014381 -26.00342996 26.77353258 -24.125 31 C-24.125 31.99 -24.125 32.98 -24.125 34 C-27.125 33 -27.125 33 -28.28125 31.38671875 C-30.43323415 25.29939321 -30.3460215 17.22762669 -28.0625 11.19140625 C-21.90288818 1.26572742 -11.30589311 -3.61788579 0 0 Z " fill="#191919" transform="translate(60.125,11)"/>
<path d="M0 0 C0.33 0 0.66 0 1 0 C1.13277344 0.88042969 1.26554687 1.76085937 1.40234375 2.66796875 C1.57894531 3.82941406 1.75554688 4.99085937 1.9375 6.1875 C2.11152344 7.33605469 2.28554688 8.48460937 2.46484375 9.66796875 C2.91379313 12.46325212 3.42082162 15.22933586 4 18 C1 17 1 17 -0.17578125 15.32421875 C-1.21780161 12.3858201 -1.2291997 9.92481364 -1.1875 6.8125 C-1.18105469 5.74644531 -1.17460937 4.68039063 -1.16796875 3.58203125 C-1 1 -1 1 0 0 Z " fill="#040404" transform="translate(32,27)"/>
<path d="M0 0 C10.55808656 -0.3690205 10.55808656 -0.3690205 15 2 C14.01 3.485 14.01 3.485 13 5 C9.7 4.34 6.4 3.68 3 3 C3 2.34 3 1.68 3 1 C2.01 0.67 1.02 0.34 0 0 Z " fill="#1F1F1F" transform="translate(47,10)"/>
<path d="M0 0 C0 0.66 0 1.32 0 2 C-4 4 -8 6 -12 8 C-9.82021749 2.45146271 -6.05820197 -0.69236594 0 0 Z " fill="#0B0B0B" transform="translate(50,11)"/>
<path d="M0 0 C0.99 0 1.98 0 3 0 C4.4606285 2.64738916 5 3.89448334 5 7 C4.01 6.67 3.02 6.34 2 6 C0.8125 2.9375 0.8125 2.9375 0 0 Z " fill="#1B1B1B" transform="translate(31,38)"/>
</svg>
