<?xml version="1.0" encoding="UTF-8"?>
<svg version="1.1" xmlns="http://www.w3.org/2000/svg" width="1300" height="480">
<path d="M0 0 C429 0 858 0 1300 0 C1300 158.4 1300 316.8 1300 480 C871 480 442 480 0 480 C0 321.6 0 163.2 0 0 Z " fill="#FEFEFE" transform="translate(0,0)"/>
<path d="M0 0 C16.77717261 6.56329206 28.78550811 36.37079531 35.58984375 51.390625 C46.27876168 75.84852965 48.35990968 100.76671019 48.4375 127.1875 C48.44689606 128.70204773 48.44689606 128.70204773 48.45648193 130.24719238 C48.52032162 146.52598045 46.78287549 161.36983751 42 177 C41.51853516 178.58361328 41.51853516 178.58361328 41.02734375 180.19921875 C39.47022691 185.10739312 38.09821704 188.88796848 35 193 C34.31819858 194.72866186 33.6959334 196.4816222 33.125 198.25 C31.58618884 202.70007552 29.74011961 206.39109789 27.05078125 210.24609375 C25.91175828 212.14728823 25.43265681 213.83671597 25 216 C24.34 216 23.68 216 23 216 C22.73445313 216.71800781 22.46890625 217.43601562 22.1953125 218.17578125 C16.61806154 231.35340361 6.04990533 242.28792574 -3.65039062 252.56689453 C-4.88551329 253.87843036 -6.10751757 255.20228837 -7.328125 256.52734375 C-29.36169508 279.64760351 -62.50029902 298.41134337 -94 304 C-95.66646209 304.02611265 -97.33363507 304.03171283 -99 304 C-99.67466072 301.12666819 -100.3399234 298.25168518 -101 295.375 C-101.28617188 294.16263672 -101.28617188 294.16263672 -101.578125 292.92578125 C-102.57925543 288.52795831 -103.2353082 284.54438961 -103 280 C-101.9584375 279.70867187 -100.916875 279.41734375 -99.84375 279.1171875 C-77.46829593 272.76483401 -57.5239428 264.29088738 -39 250 C-37.56914062 248.90558594 -37.56914062 248.90558594 -36.109375 247.7890625 C-18.15672813 233.58082483 -4.49512977 216.2809733 6 196 C6.48984375 195.07574219 6.9796875 194.15148437 7.484375 193.19921875 C18.58272761 171.7218512 23.58158412 149.3484603 23.39111328 125.28564453 C23.37495485 122.86824594 23.39112199 120.45250665 23.41015625 118.03515625 C23.45941661 80.86220463 8.51949522 43.94516534 -17 17 C-15.89331271 13.67993813 -15.05427405 12.9417403 -12.4375 10.75 C-11.72464844 10.14542969 -11.01179688 9.54085937 -10.27734375 8.91796875 C-9.52582031 8.28503906 -8.77429688 7.65210938 -8 7 C-6.49732552 5.69056285 -4.99718607 4.37820897 -3.5 3.0625 C-2.33333333 2.04166667 -1.16666667 1.02083333 0 0 Z " fill="#D6403A" transform="translate(330,162)"/>
<path d="M0 0 C0.77166504 0.13390137 1.54333008 0.26780273 2.33837891 0.40576172 C15.15692068 2.67562584 26.97603258 7.08744239 39 12 C38.43997169 17.56472574 36.3654757 21.9267939 33.9375 26.875 C33.37192383 28.050625 33.37192383 28.050625 32.79492188 29.25 C31.87006766 31.16995053 30.93596022 33.085439 30 35 C26.686309 34.39392171 23.5866044 33.5939599 20.41015625 32.4765625 C19.55019043 32.1789502 18.69022461 31.88133789 17.80419922 31.57470703 C16.89943848 31.26130371 15.99467773 30.94790039 15.0625 30.625 C-12.08285725 21.42072784 -44.93034537 18.73484481 -72.88964844 26.42333984 C-74.95112509 26.98664478 -77.01941433 27.47665064 -79.1015625 27.95703125 C-96.68965466 32.28466081 -114.6107221 41.02870306 -129 52 C-130.09627799 52.80218745 -131.19263697 53.60426422 -132.2890625 54.40625 C-155.24557174 71.52091824 -172.8151769 93.63359855 -184 120 C-184.37125 120.86625 -184.7425 121.7325 -185.125 122.625 C-186.2594703 125.70427652 -187.13165103 128.83672876 -188 132 C-195.78121942 129.97810834 -203.39772708 127.61369593 -211 125 C-211.50861101 118.73824802 -209.85902238 114.54722913 -207.1875 108.9375 C-206.83107422 108.16083984 -206.47464844 107.38417969 -206.10742188 106.58398438 C-204.1527042 102.34816497 -202.11032119 98.16072789 -200 94 C-199.34 94 -198.68 94 -198 94 C-197.84337891 92.9171875 -197.84337891 92.9171875 -197.68359375 91.8125 C-194.49012124 78.67364167 -180.10146303 64.59500329 -171 55 C-170.54318848 54.51063965 -170.08637695 54.0212793 -169.61572266 53.51708984 C-150.32163604 32.95508781 -124.92822482 15.75714628 -98 7 C-97.16114258 6.72414063 -96.32228516 6.44828125 -95.45800781 6.1640625 C-64.20090512 -3.94884732 -32.39483247 -5.96729826 0 0 Z " fill="#D6403A" transform="translate(229,103)"/>
<path d="M0 0 C7.693125 -0.0825 15.38625 -0.165 23.3125 -0.25 C25.71829346 -0.28641602 28.12408691 -0.32283203 30.6027832 -0.36035156 C32.54377352 -0.37205142 34.48477378 -0.38224016 36.42578125 -0.390625 C37.89597717 -0.4213208 37.89597717 -0.4213208 39.39587402 -0.45263672 C49.09296887 -0.45745336 58.80469207 2.17944769 66 9 C72.86168266 16.93382057 72.54738955 24.86276668 72 35 C70.89077068 42.57603626 66.68389156 48.01187671 61 53 C57.5 54.5625 57.5 54.5625 55 55 C58.79403115 61.99703232 63.40252515 68.33793213 68.04296875 74.79296875 C68.95369141 76.07494141 68.95369141 76.07494141 69.8828125 77.3828125 C70.43340332 78.14996582 70.98399414 78.91711914 71.55126953 79.70751953 C73.04211452 82.06664229 74.04701226 84.38260674 75 87 C67.41109087 88.78102909 59.36868515 90.08506067 52 87 C47.03294613 81.99583703 43.68082625 75.96952251 40.55322266 69.69213867 C37.56420551 63.33877259 37.56420551 63.33877259 32.16699219 59.31854248 C27.61574399 58.44743073 23.74414194 58.76332476 19 59 C19 68.24 19 77.48 19 87 C12.73 87 6.46 87 0 87 C0 58.29 0 29.58 0 0 Z " fill="#DA3C39" transform="translate(675,242)"/>
<path d="M0 0 C19 0 19 0 23.2421875 3.12109375 C24.63110352 5.17993164 24.63110352 5.17993164 25.875 7.4375 C26.90056465 9.008975 27.927962 10.57925523 28.95703125 12.1484375 C29.45541504 12.95635742 29.95379883 13.76427734 30.46728516 14.59667969 C32.92011256 18.44275056 35.74499157 21.97992511 38.5625 25.5625 C44.79067039 33.64630195 50.8770053 41.83600707 57 50 C57.33 33.5 57.66 17 58 0 C64.6 0 71.2 0 78 0 C78 28.71 78 57.42 78 87 C60 87 60 87 55.53125 83.30078125 C53.94897461 80.90576172 53.94897461 80.90576172 52.5 78.3125 C51.3671028 76.54999815 50.23298435 74.7882807 49.09765625 73.02734375 C48.57059082 72.16222168 48.04352539 71.29709961 47.50048828 70.40576172 C45.50620485 67.20828874 43.28036037 64.32707928 40.9375 61.375 C40.1640625 60.3746875 39.390625 59.374375 38.59375 58.34375 C37.17280118 56.51099754 35.75074436 54.67911248 34.328125 52.84765625 C32.52745003 50.52635134 30.73224305 48.20089296 28.9375 45.875 C28.36443115 45.13942871 27.7913623 44.40385742 27.20092773 43.64599609 C26.66927002 42.95586426 26.1376123 42.26573242 25.58984375 41.5546875 C25.11409912 40.94093262 24.63835449 40.32717773 24.14819336 39.69482422 C23 38 23 38 22 35 C21.34 35 20.68 35 20 35 C20 52.16 20 69.32 20 87 C13.4 87 6.8 87 0 87 C0 58.29 0 29.58 0 0 Z " fill="#DB3E3B" transform="translate(935,380)"/>
<path d="M0 0 C7.074375 -0.061875 14.14875 -0.12375 21.4375 -0.1875 C24.76026001 -0.22846802 24.76026001 -0.22846802 28.15014648 -0.27026367 C29.93212338 -0.27903643 31.71410636 -0.28667849 33.49609375 -0.29296875 C34.40008911 -0.30831665 35.30408447 -0.32366455 36.23547363 -0.33947754 C45.92225813 -0.34341366 54.71799734 2.41477433 62 9 C68.81770723 18.17603363 70.04123259 26.85852759 69 38 C68.1670984 41.42203571 66.93338299 44.06952641 65 47 C64.61070312 47.62132812 64.22140625 48.24265625 63.8203125 48.8828125 C58.8097115 55.73162215 50.23081712 59.65398006 42 61 C40.23447202 61.07747197 38.46641544 61.10799073 36.69921875 61.09765625 C35.81838623 61.09515869 34.93755371 61.09266113 34.0300293 61.09008789 C32.92699463 61.08098389 31.82395996 61.07187988 30.6875 61.0625 C25.3971875 61.0315625 25.3971875 61.0315625 20 61 C20 69.58 20 78.16 20 87 C13.4 87 6.8 87 0 87 C0 58.29 0 29.58 0 0 Z " fill="#DB3D3A" transform="translate(936,242)"/>
<path d="M0 0 C0.78922852 -0.01313232 1.57845703 -0.02626465 2.39160156 -0.03979492 C6.3965231 -0.04535969 9.19129688 0.04597419 12.6875 2.1875 C14.481875 2.5278125 14.481875 2.5278125 16.3125 2.875 C21.93345271 4.15827411 26.18689167 7.73826329 30.6875 11.1875 C29.38091245 14.94968425 27.82571708 17.46002979 25.125 20.375 C22.60507217 23.07377046 22.60507217 23.07377046 20.6875 26.1875 C16.98444581 25.61176013 14.28197975 24.59042274 11.0625 22.6875 C4.11327957 18.60809415 -2.33896815 18.39279583 -10.3125 19.1875 C-13.46483308 20.39068056 -15.78011941 21.98291487 -18.3125 24.1875 C-19.055 24.744375 -19.7975 25.30125 -20.5625 25.875 C-26.29628055 33.45178144 -27.45398063 41.90423403 -26.3125 51.1875 C-24.63466381 57.41811641 -21.20336285 62.96096981 -16.3125 67.1875 C-8.87230845 71.38106251 1.0088289 71.71704918 9.2109375 69.5078125 C11.28033187 68.66789368 11.28033187 68.66789368 13.6875 67.1875 C14.0175 63.2275 14.3475 59.2675 14.6875 55.1875 C8.4175 55.1875 2.1475 55.1875 -4.3125 55.1875 C-4.333125 52.403125 -4.35375 49.61875 -4.375 46.75 C-4.384104 45.87158447 -4.39320801 44.99316895 -4.40258789 44.08813477 C-4.40973091 42.12104026 -4.36281893 40.15396379 -4.3125 38.1875 C-3.3125 37.1875 -3.3125 37.1875 0.28930664 37.07397461 C1.89209856 37.07413375 3.4948956 37.07982937 5.09765625 37.08984375 C5.93969101 37.0912587 6.78172577 37.09267365 7.64927673 37.09413147 C10.34955335 37.09974737 13.04974828 37.11230252 15.75 37.125 C17.57617068 37.13001295 19.40234266 37.13457621 21.22851562 37.13867188 C25.71487542 37.14972196 30.20117384 37.16699721 34.6875 37.1875 C34.9605182 42.61311627 35.1594754 48.03470198 35.29174805 53.46557617 C35.34689582 55.31003466 35.42184394 57.1540158 35.51733398 58.99682617 C36.29044671 74.30611192 36.29044671 74.30611192 32.38110352 78.89453125 C29.53098198 80.72398979 26.84613683 81.98276012 23.6875 83.1875 C21.86613862 84.1288829 20.05203643 85.08463307 18.25 86.0625 C11.51733148 89.41219669 5.49575166 89.43258841 -1.9375 89.5 C-3.50177734 89.54350586 -3.50177734 89.54350586 -5.09765625 89.58789062 C-16.99729251 89.68445446 -27.00671819 85.09350258 -35.875 77.25 C-44.93102866 67.77855718 -48.85155776 54.42785243 -48.62890625 41.6328125 C-47.80446215 32.65553234 -44.74695758 24.36988253 -39.3125 17.1875 C-38.87164063 16.58421875 -38.43078125 15.9809375 -37.9765625 15.359375 C-34.14998258 10.49687013 -29.59595149 7.33651366 -24.3125 4.1875 C-23.3225 3.589375 -22.3325 2.99125 -21.3125 2.375 C-14.53696331 -0.30698327 -7.18693362 0.07662434 0 0 Z " fill="#DA3B38" transform="translate(1077.3125,378.8125)"/>
<path d="M0 0 C9.90416733 5.80430272 17.04944516 12.44105488 20.34375 23.64453125 C22.05263418 32.3822188 22.5081134 42.05551337 18 50 C17.37931641 51.10408203 17.37931641 51.10408203 16.74609375 52.23046875 C11.82792642 60.23086628 4.17697574 68.12940526 -5.203125 70.57421875 C-17.05988827 72.3792288 -26.81071582 71.79285612 -37 65 C-37.61230469 64.60554688 -38.22460938 64.21109375 -38.85546875 63.8046875 C-46.91660251 57.87799275 -51.85937861 47.2394541 -53.3828125 37.5703125 C-53.90938778 26.86328171 -50.41413539 16.20888819 -43.34765625 8.19140625 C-31.81407928 -2.57454496 -14.70289099 -7.66398384 0 0 Z " fill="#FEFEFC" transform="translate(209,251)"/>
<path d="M0 0 C21.78 0 43.56 0 66 0 C66 5.94 66 11.88 66 18 C50.82 18 35.64 18 20 18 C20 23.28 20 28.56 20 34 C33.53 34 47.06 34 61 34 C61 39.94 61 45.88 61 52 C47.47 52 33.94 52 20 52 C20 57.61 20 63.22 20 69 C35.51 69 51.02 69 67 69 C67 74.94 67 80.88 67 87 C44.89 87 22.78 87 0 87 C0 58.29 0 29.58 0 0 Z " fill="#DB3E3B" transform="translate(1129,380)"/>
<path d="M0 0 C21.78 0 43.56 0 66 0 C66 5.94 66 11.88 66 18 C50.49 18 34.98 18 19 18 C19 23.28 19 28.56 19 34 C32.53 34 46.06 34 60 34 C60 39.94 60 45.88 60 52 C46.8 52 33.6 52 20 52 C21.485 54.475 21.485 54.475 23 57 C24 58.66666667 25 60.33333333 26 62 C23.83125748 61.49396008 22.00032373 61.00016187 20 60 C20 62.97 20 65.94 20 69 C35.18 69 50.36 69 66 69 C66 74.94 66 80.88 66 87 C44.22 87 22.44 87 0 87 C0 58.29 0 29.58 0 0 Z " fill="#DB3E3B" transform="translate(853,380)"/>
<path d="M0 0 C0.74886475 0.00523682 1.49772949 0.01047363 2.26928711 0.01586914 C3.07817383 0.0190918 3.88706055 0.02231445 4.72045898 0.02563477 C5.5705957 0.03401367 6.42073242 0.04239258 7.29663086 0.05102539 C8.15063477 0.05553711 9.00463867 0.06004883 9.88452148 0.06469727 C12.00108749 0.07652166 14.11761771 0.0944577 16.23413086 0.11352539 C22.04230589 12.22251217 27.29331017 24.54205729 32.48413086 36.92602539 C33.32477549 38.92654033 34.16567901 40.9269465 35.00683594 42.92724609 C36.25680569 45.89976336 37.50659062 48.87235611 38.75520325 51.84544373 C41.12699078 57.49106929 43.51221718 63.13062571 45.91772461 68.76196289 C46.18322113 69.38449448 46.44871765 70.00702606 46.72225952 70.64842224 C47.90708333 73.42656881 49.09468495 76.20344729 50.2878418 78.97802734 C50.68648437 79.91348389 51.08512695 80.84894043 51.49584961 81.81274414 C51.83575928 82.60511475 52.17566895 83.39748535 52.52587891 84.21386719 C53.23413086 86.11352539 53.23413086 86.11352539 53.23413086 88.11352539 C46.30413086 88.11352539 39.37413086 88.11352539 32.23413086 88.11352539 C29.92413086 82.17352539 27.61413086 76.23352539 25.23413086 70.11352539 C6.91913086 69.61852539 6.91913086 69.61852539 -11.76586914 69.11352539 C-12.75586914 72.08352539 -13.74586914 75.05352539 -14.76586914 78.11352539 C-16.04498924 81.47175039 -17.40682215 84.78620345 -18.76586914 88.11352539 C-25.36586914 88.11352539 -31.96586914 88.11352539 -38.76586914 88.11352539 C-37.9990985 84.27967218 -37.23405906 81.53930188 -35.73144531 78.03320312 C-35.30940323 77.04197449 -34.88736115 76.05074585 -34.45252991 75.02947998 C-33.99261154 73.9628009 -33.53269318 72.89612183 -33.05883789 71.79711914 C-32.58155746 70.67976379 -32.10427704 69.56240845 -31.61253357 68.41119385 C-30.32840439 65.40745623 -29.04010387 62.40555374 -27.74970245 59.40450668 C-26.42490281 56.32100972 -25.10514087 53.23535843 -23.78491211 50.14990234 C-21.71630092 45.31696441 -19.64468173 40.48532496 -17.57104492 35.65454102 C-15.24014545 30.22285165 -12.91912345 24.78705743 -10.60571289 19.34790039 C-10.03980006 18.01916888 -9.47380594 16.69047198 -8.90771484 15.36181641 C-7.92194518 13.04772491 -6.9373418 10.73313612 -5.95410156 8.41796875 C-5.53362549 7.43449463 -5.11314941 6.45102051 -4.67993164 5.43774414 C-4.32882324 4.61363037 -3.97771484 3.7895166 -3.6159668 2.94042969 C-2.31703584 0.14895917 -2.31703584 0.14895917 0 0 Z " fill="#DB3D3A" transform="translate(608.765869140625,240.886474609375)"/>
<path d="M0 0 C6.27 0 12.54 0 19 0 C23.07879966 8.0003777 26.84613592 16.04419517 30.3359375 24.31640625 C30.81898346 25.45295151 31.30202942 26.58949677 31.79971313 27.76048279 C33.32837923 31.35965249 34.85175842 34.96103171 36.375 38.5625 C37.38767708 40.94871362 38.40069548 43.33478242 39.4140625 45.72070312 C41.83625314 51.42607481 44.25082316 57.13463501 46.66345215 62.84405518 C47.93980174 65.85785591 49.2230908 68.86859564 50.50878906 71.87841797 C50.8866153 72.76625473 51.26444153 73.65409149 51.65371704 74.5688324 C52.34882923 76.20223234 53.04656181 77.83452063 53.74740601 79.46546936 C56 84.77401289 56 84.77401289 56 87 C49.07 87 42.14 87 35 87 C32.69 81.06 30.38 75.12 28 69 C9.685 68.505 9.685 68.505 -9 68 C-9.99 70.97 -10.98 73.94 -12 77 C-13.2791201 80.358225 -14.64095301 83.67267806 -16 87 C-22.6 87 -29.2 87 -36 87 C-35.24988748 83.24943739 -34.56991676 80.67978434 -33.0859375 77.28515625 C-32.66538086 76.31416992 -32.24482422 75.34318359 -31.81152344 74.34277344 C-31.10044434 72.71903809 -31.10044434 72.71903809 -30.375 71.0625 C-29.30364025 68.59029076 -28.23336493 66.11762953 -27.1640625 63.64453125 C-26.85984375 62.94218353 -26.555625 62.23983582 -26.2421875 61.51620483 C-21.56085761 50.69567401 -16.95856924 39.84116811 -12.34259033 28.99264526 C-10.75293187 25.25663609 -9.16244977 21.52097795 -7.57177734 17.78540039 C-5.04746585 11.85709773 -2.52360212 5.92860467 0 0 Z " fill="#DA3D39" transform="translate(632,380)"/>
<path d="M0 0 C6.6 0 13.2 0 20 0 C20 11.22 20 22.44 20 34 C30.89 34 41.78 34 53 34 C53 22.78 53 11.56 53 0 C59.6 0 66.2 0 73 0 C73 28.71 73 57.42 73 87 C66.73 87 60.46 87 54 87 C54 75.45 54 63.9 54 52 C42.45 52 30.9 52 19 52 C19 63.55 19 75.1 19 87 C12.73 87 6.46 87 0 87 C0 58.29 0 29.58 0 0 Z " fill="#DA3C39" transform="translate(510,380)"/>
<path d="M0 0 C6.27 0 12.54 0 19 0 C19.0093457 1.58345215 19.01869141 3.1669043 19.02832031 4.79833984 C19.068371 10.70649737 19.13417261 16.61414244 19.20751953 22.52197266 C19.23564171 25.07268664 19.25689949 27.62348635 19.27099609 30.17431641 C19.29254618 33.85363377 19.33926135 37.53192981 19.390625 41.2109375 C19.39185364 42.34050873 19.39308228 43.47007996 19.39434814 44.63388062 C19.54362717 52.8127398 20.56731683 60.56731683 26.5625 66.5625 C31.56907431 69.51509511 36.33461379 69.57998761 42 69 C47.67845874 67.45758128 51.00402258 64.50306118 53.96981812 59.51171875 C56.04219287 54.45899689 55.72460231 49.13623776 55.70703125 43.75 C55.72215256 42.49614502 55.73727386 41.24229004 55.75285339 39.95043945 C55.78839483 36.64262404 55.80287838 33.33562375 55.80688477 30.02764893 C55.81626086 26.64196301 55.85370179 23.25659492 55.88867188 19.87109375 C55.95145258 13.24732894 55.98384536 6.62403599 56 0 C62.27 0 68.54 0 75 0 C75.09086009 7.5025969 75.16403546 15.0049847 75.20724869 22.50800037 C75.2280033 25.99309262 75.25609382 29.47778455 75.30175781 32.96264648 C75.35408311 36.98164411 75.37304512 41.00023025 75.390625 45.01953125 C75.41127014 46.25331009 75.43191528 47.48708893 75.45318604 48.758255 C75.4561743 60.43334878 72.62818964 70.09726452 64.4375 78.6875 C63.633125 79.450625 62.82875 80.21375 62 81 C61.54496094 81.49757813 61.08992187 81.99515625 60.62109375 82.5078125 C53.11395157 89.4180012 41.49737781 88.69789343 31.984375 88.375 C22.64360688 87.81775805 15.80155543 84.90696138 9.01171875 78.421875 C3.09171575 71.2948811 -0.13282989 63.22702686 -0.11352539 54.03808594 C-0.11344986 52.83714294 -0.11337433 51.63619995 -0.11329651 50.39886475 C-0.10813522 49.10708313 -0.10297394 47.81530151 -0.09765625 46.484375 C-0.09579017 45.14487765 -0.09436716 43.80537962 -0.09336853 42.46588135 C-0.08955835 38.94777528 -0.07974091 35.42971079 -0.06866455 31.91162109 C-0.05841817 28.31869061 -0.053864 24.72575339 -0.04882812 21.1328125 C-0.03811725 14.08852308 -0.02053262 7.04426863 0 0 Z " fill="#DA3B38" transform="translate(842,242)"/>
<path d="M0 0 C0.86625 0.721875 1.7325 1.44375 2.625 2.1875 C1.9897459 5.87025689 0.37850193 8.33492446 -1.75 11.375 C-2.65878906 12.69564453 -2.65878906 12.69564453 -3.5859375 14.04296875 C-5.375 16.1875 -5.375 16.1875 -8.375 17.1875 C-10.772252 16.10932416 -13.05513487 14.97406831 -15.375 13.75 C-21.70580689 10.61062406 -27.21531809 8.62403393 -34.375 10.1875 C-37.62447464 11.63101804 -37.62447464 11.63101804 -39.375 14.1875 C-40.20833333 16.6875 -40.20833333 16.6875 -39.375 19.1875 C-35.98911253 23.02483913 -32.0780245 24.03395965 -27.3203125 25.34765625 C-14.77068474 28.92613101 -2.52334192 32.48532924 4.7265625 43.92578125 C7.09717735 49.89354645 6.5272858 58.09797674 4.75 64.18359375 C1.16772686 71.92554589 -3.7536477 76.40078527 -11.625 79.5625 C-24.88455306 83.50048756 -39.06246257 82.42525964 -51.375 76.1875 C-55.54816731 73.76059275 -59.49068779 71.05449235 -63.375 68.1875 C-61.7468356 64.43019753 -59.36098083 61.570677 -56.75 58.4375 C-55.93273437 57.45265625 -55.11546875 56.4678125 -54.2734375 55.453125 C-53.33371094 54.33164062 -53.33371094 54.33164062 -52.375 53.1875 C-48.3382901 55.12175683 -44.60700097 57.48187744 -40.8125 59.84765625 C-36.17962266 62.39425389 -32.14280587 62.34907576 -26.875 62.375 C-25.5653125 62.38917969 -24.255625 62.40335937 -22.90625 62.41796875 C-18.80085278 62.1692438 -18.80085278 62.1692438 -15.375 60.1875 C-14.55629815 56.62543339 -14.55629815 56.62543339 -14.375 53.1875 C-20.09252701 49.15955894 -25.5214495 46.97397112 -32.25 45.1875 C-51.96991683 39.58803972 -51.96991683 39.58803972 -56.375 32.1875 C-57.24125 30.7334375 -57.24125 30.7334375 -58.125 29.25 C-60.59967008 23.01547207 -60.44319657 15.15508727 -58.71875 8.75 C-55.51201719 1.67307242 -49.58317953 -3.99190801 -42.375 -6.8125 C-28.15822917 -10.47796578 -12.07910175 -8.42168449 0 0 Z " fill="#DB3D3A" transform="translate(476.375,248.8125)"/>
<path d="M0 0 C1.01078613 0.00950684 2.02157227 0.01901367 3.06298828 0.02880859 C10.77916641 0.24387204 16.96413302 1.48961318 23.625 5.5625 C24.49640625 6.078125 25.3678125 6.59375 26.265625 7.125 C29.85871387 9.38480432 32.24611111 10.99416667 34.625 14.5625 C33.99851562 15.24957031 33.37203125 15.93664062 32.7265625 16.64453125 C31.90929687 17.54558594 31.09203125 18.44664062 30.25 19.375 C29.43789063 20.26832031 28.62578125 21.16164063 27.7890625 22.08203125 C25.53427093 24.55882674 25.53427093 24.55882674 23.625 27.5625 C19.79725887 26.81868131 17.60461881 25.20034906 14.6015625 22.81640625 C8.17625101 18.74026991 0.96524215 18.85273362 -6.375 19.5625 C-12.62900923 21.25523832 -16.86150072 25.23205094 -20.375 30.5625 C-24.43520987 37.65637611 -24.28982061 45.89691488 -22.75 53.75 C-19.43003954 60.54082821 -16.073557 66.35099349 -9.05859375 69.74609375 C-1.54919016 72.03061391 6.16224806 71.68363164 13.25 68.3125 C16.48994766 66.44206969 19.23890383 64.49089075 21.625 61.5625 C25.20902695 63.09498049 27.65350134 65.2299601 30.4375 67.9375 C31.65373047 69.09378906 31.65373047 69.09378906 32.89453125 70.2734375 C34.625 72.5625 34.625 72.5625 34.6015625 74.63671875 C31.0356859 81.6686274 22.60030059 85.69171302 15.625 88.5625 C4.80525127 91.76514562 -10.86978832 91.32802802 -20.8671875 86.18359375 C-32.02212467 78.97284776 -40.10563256 70.70873484 -43.92138672 57.69970703 C-46.38948745 46.07120662 -45.81885425 31.67081112 -39.375 21.5625 C-35.4328603 15.83951691 -31.14761076 10.49837098 -25.375 6.5625 C-24.055 6.5625 -22.735 6.5625 -21.375 6.5625 C-21.375 5.9025 -21.375 5.2425 -21.375 4.5625 C-14.14174411 1.10195706 -7.99296579 -0.12136824 0 0 Z " fill="#DA3C39" transform="translate(460.375,378.4375)"/>
<path d="M0 0 C0.92425781 0.00974854 1.84851563 0.01949707 2.80078125 0.02954102 C16.9654063 0.39633915 27.9195104 6.01277672 38.07421875 15.71875 C46.96920785 25.88445183 51.1523383 39.40782796 51.03125 52.7578125 C50.07497077 62.99434695 46.01798942 72.38824867 39.6875 80.4375 C38.945 81.46875 38.2025 82.5 37.4375 83.5625 C34.27577846 86.86793616 30.8787624 89.28465078 27.08984375 91.82421875 C24.71890222 93.33260044 24.71890222 93.33260044 22.94140625 95.01953125 C13.70585058 100.82976818 -0.92418142 99.39043362 -11.3125 98.4375 C-19.03887973 96.62638684 -25.39822889 92.64616393 -31.3125 87.4375 C-31.91707031 86.91414063 -32.52164063 86.39078125 -33.14453125 85.8515625 C-42.95704044 76.74452782 -48.23447285 64.38633379 -48.78540039 51.07299805 C-48.96829222 36.23898787 -43.68552862 23.96898704 -33.5 13.125 C-23.91684734 4.09685618 -13.0611356 -0.15440675 0 0 Z M-28.06640625 25.17578125 C-34.27146345 32.43834194 -37.23662822 43.39575533 -36.75390625 52.87890625 C-34.8918082 63.67248344 -29.67029932 73.77575995 -20.75 80.31640625 C-18.30981573 81.82336528 -15.89450569 83.19072401 -13.3125 84.4375 C-12.18714844 85.00210938 -12.18714844 85.00210938 -11.0390625 85.578125 C-7.28057141 86.7627497 -3.79122412 86.72832944 0.125 86.6875 C1.23198242 86.69910156 1.23198242 86.69910156 2.36132812 86.7109375 C11.88042473 86.67709182 20.39242823 82.7543859 27.375 76.3125 C35.67104746 67.51366179 38.21127536 58.14954206 37.953125 46.39453125 C37.30256709 36.70313175 34.10144343 29.65586908 27.328125 22.703125 C9.69773947 7.57646286 -11.86288567 9.11661275 -28.06640625 25.17578125 Z " fill="#EEAE42" transform="translate(192.3125,235.5625)"/>
<path d="M0 0 C1.4375 1.80078125 1.4375 1.80078125 3 4.3125 C13.48342513 19.81831917 28.9243924 30.62210773 47.25732422 34.58496094 C54.19347991 35.63458393 61.30955274 35.40437499 68.31054688 35.47851562 C69.52677734 35.50494141 70.74300781 35.53136719 71.99609375 35.55859375 C73.10138428 35.57204834 74.2066748 35.58550293 75.34545898 35.59936523 C76.22145752 35.73157471 77.09745605 35.86378418 78 36 C80.32311927 39.4846789 81.11241045 42.86511634 82.0625 46.875 C82.23587891 47.58269531 82.40925781 48.29039062 82.58789062 49.01953125 C83.47382303 52.66509219 84.29900399 56.31435088 85 60 C78.65633739 61.20475267 72.39212909 61.22209555 65.96191406 61.24023438 C63.90127193 61.24987706 61.84165618 61.28092289 59.78125 61.3125 C51.42540892 61.37909318 43.99016196 60.46346667 36 58 C34.99163086 57.70996094 33.98326172 57.41992188 32.94433594 57.12109375 C10.91666072 50.66026659 -8.13355926 34.78702522 -20.9609375 15.98828125 C-22 14 -22 14 -22 11 C-20.3034668 9.6496582 -20.3034668 9.6496582 -17.94921875 8.30078125 C-17.10552734 7.81416016 -16.26183594 7.32753906 -15.39257812 6.82617188 C-14.49990234 6.32666016 -13.60722656 5.82714844 -12.6875 5.3125 C-11.80642578 4.80138672 -10.92535156 4.29027344 -10.01757812 3.76367188 C-3.4097964 0 -3.4097964 0 0 0 Z " fill="#D7423C" transform="translate(130,323)"/>
<path d="M0 0 C2.56695636 0.39491636 4.67123994 0.83561997 7 2 C7 2.66 7 3.32 7 4 C7.85851562 4.23332031 8.71703125 4.46664062 9.6015625 4.70703125 C13.39415657 6.14996072 16.24995477 8.1724135 19.375 10.6875 C19.94589355 11.1410083 20.51678711 11.5945166 21.10498047 12.06176758 C22.23676302 12.96536558 23.36529973 13.87304708 24.49023438 14.78515625 C25.72050929 15.7751058 26.97426939 16.73581185 28.234375 17.6875 C44.54955754 30.63177706 54.73999857 53.21099264 58.625 73.21875 C59.1453736 78.4658505 59.1050168 83.66868769 59.0625 88.9375 C59.05798828 90.00291016 59.05347656 91.06832031 59.04882812 92.16601562 C59.03711787 94.77740291 59.02071724 97.38867124 59 100 C55.95807987 99.8584453 52.91653653 99.71190099 49.875 99.5625 C49.0190625 99.52318359 48.163125 99.48386719 47.28125 99.44335938 C42.78278208 99.21843598 38.43193793 98.86459117 34 98 C33.98582031 96.68128906 33.97164063 95.36257813 33.95703125 94.00390625 C33.49170764 72.58698612 28.3346922 53.99634704 13.30078125 38.05859375 C6.63431958 32.09386488 -1.12834251 27.21042145 -9 23 C-8.40277975 17.73284919 -6.66259825 13.45998089 -4.5 8.6875 C-4.01853516 7.59598633 -4.01853516 7.59598633 -3.52734375 6.48242188 C-1.15334821 1.15334821 -1.15334821 1.15334821 0 0 Z " fill="#D6413B" transform="translate(233,195)"/>
<path d="M0 0 C23.76 0 47.52 0 72 0 C72 5.94 72 11.88 72 18 C63.42 18 54.84 18 46 18 C46 40.77 46 63.54 46 87 C39.4 87 32.8 87 26 87 C26 64.23 26 41.46 26 18 C17.42 18 8.84 18 0 18 C0 12.06 0 6.12 0 0 Z " fill="#DA3D3A" transform="translate(757,242)"/>
<path d="M0 0 C23.76 0 47.52 0 72 0 C72 5.94 72 11.88 72 18 C63.42 18 54.84 18 46 18 C46 40.77 46 63.54 46 87 C39.4 87 32.8 87 26 87 C26 64.23 26 41.46 26 18 C17.42 18 8.84 18 0 18 C0 12.06 0 6.12 0 0 Z " fill="#DB3E3A" transform="translate(492,242)"/>
<path d="M0 0 C6.6 0 13.2 0 20 0 C20 22.77 20 45.54 20 69 C34.19 69 48.38 69 63 69 C63 74.94 63 80.88 63 87 C42.21 87 21.42 87 0 87 C0 58.29 0 29.58 0 0 Z " fill="#DA3D39" transform="translate(776,380)"/>
<path d="M0 0 C6.27 0 12.54 0 19 0 C19 22.44 19 44.88 19 68 C33.19 68 47.38 68 62 68 C62 73.94 62 79.88 62 86 C41.54 86 21.08 86 0 86 C0 57.62 0 29.24 0 0 Z " fill="#DA3A36" transform="translate(701,381)"/>
<path d="M0 0 C3.63 0 7.26 0 11 0 C11 12.54 11 25.08 11 38 C27.17 38 43.34 38 60 38 C60 25.46 60 12.92 60 0 C63.3 0 66.6 0 70 0 C70 28.38 70 56.76 70 86 C66.7 86 63.4 86 60 86 C60 73.46 60 60.92 60 48 C43.83 48 27.66 48 11 48 C11 60.54 11 73.08 11 86 C7.37 86 3.74 86 0 86 C0 57.62 0 29.24 0 0 Z " fill="#DB413D" transform="translate(421,102)"/>
<path d="M0 0 C3.3 0 6.6 0 10 0 C10.33 16.17 10.66 32.34 11 49 C22.76926852 37.25191499 22.76926852 37.25191499 34 25 C36.4818609 22.47642716 38.97348832 19.97729602 41.5 17.5 C46.10653234 12.94322522 50.62640913 8.3811986 54.80078125 3.41796875 C56 2 56 2 58 0 C61.0390625 -0.1953125 61.0390625 -0.1953125 64.625 -0.125 C66.40777344 -0.09792969 66.40777344 -0.09792969 68.2265625 -0.0703125 C69.14179687 -0.04710938 70.05703125 -0.02390625 71 0 C69.36257349 4.21197653 66.24079929 6.99484789 63.07421875 10.0859375 C62.4896138 10.66534088 61.90500885 11.24474426 61.3026886 11.84170532 C59.43565668 13.6909628 57.56208595 15.53340291 55.6875 17.375 C53.82447008 19.21027394 51.96296914 21.0470329 50.10444641 22.88687134 C48.94969903 24.02951391 47.79228992 25.16947521 46.63175964 26.3062439 C43.18703544 29.70881698 40.04485671 33.23428115 37 37 C38.21896093 41.02257106 40.2769856 43.63614647 43.046875 46.7421875 C45.52480993 49.60668028 47.85662513 52.57850606 50.1875 55.5625 C50.65406006 56.15909424 51.12062012 56.75568848 51.60131836 57.37036133 C52.57102416 58.61102641 53.54033712 59.85199864 54.50927734 61.09326172 C56.01937181 63.02477789 57.53420761 64.9524741 59.05078125 66.87890625 C59.54489502 67.50659912 60.03900879 68.13429199 60.5480957 68.78100586 C61.49307199 69.981175 62.43821311 71.18121438 63.38354492 72.38110352 C64.59237413 73.91811141 65.79639502 75.45889767 67 77 C67.598125 77.75023437 68.19625 78.50046875 68.8125 79.2734375 C70 81 70 81 70 83 C71.485 83.495 71.485 83.495 73 84 C73 84.66 73 85.32 73 86 C68.4057818 86.92030444 64.57144531 87.1329234 60 86 C55.84785208 82.78493284 53.06118723 78.12327186 50.20068359 73.78613281 C48.60214079 71.408146 46.82187592 69.20990223 45 67 C42.67747797 64.13043766 40.41379611 61.22942908 38.203125 58.2734375 C37.47029297 57.30664062 37.47029297 57.30664062 36.72265625 56.3203125 C35.75660733 55.04420544 34.8004722 53.76051942 33.85546875 52.46875 C32.39253842 50.49074202 32.39253842 50.49074202 30 48 C23.67734255 48 20.67418619 51.83435243 16.23999023 56.01782227 C9.18620174 63.57401983 9.35751142 71.60104176 9.69140625 81.49609375 C9.79324219 82.98238281 9.89507813 84.46867187 10 86 C6.7 86 3.4 86 0 86 C0 57.62 0 29.24 0 0 Z " fill="#DB3E3B" transform="translate(687,102)"/>
<path d="M0 0 C0.84232178 0.01015137 1.68464355 0.02030273 2.55249023 0.03076172 C12.48316526 0.27842863 21.98794564 2.67474951 29.6875 9.375 C29.6875 14.05591299 28.69104129 14.99601604 25.6875 18.375 C21.32216152 16.69602366 17.23639661 14.64923445 13.08984375 12.49609375 C6.14204854 9.25378932 -2.58258026 9.17609723 -9.8125 11.5 C-12.97942598 13.87519449 -15.13844334 16.04997217 -17.3125 19.375 C-17.8386887 23.12409452 -17.65575148 25.47396487 -16.3125 29 C-11.23117955 35.03406803 -4.4034749 37.24496161 3.0625 38.9375 C4.74452444 39.35391487 6.42553382 39.77445272 8.10546875 40.19921875 C8.90001465 40.39950684 9.69456055 40.59979492 10.51318359 40.80615234 C19.93937363 43.27224518 27.59043127 47.14869652 32.6875 55.75 C34.98812625 64.08977015 33.79350916 70.77175907 29.6875 78.375 C26.12130756 84.05899955 20.80851597 85.97502189 14.5078125 87.67578125 C0.79723579 90.18518128 -13.28218294 89.20256461 -25.2421875 81.484375 C-27.36229974 79.85961608 -29.36769716 78.20385253 -31.3125 76.375 C-30.58883685 73.03069263 -29.49534504 71.03237657 -27.3125 68.375 C-23.63290572 69.0082325 -21.23532323 70.64406967 -18.1875 72.75 C-9.74944814 78.20004145 -1.4027164 80.68408055 8.6875 79.375 C13.52164637 78.06667598 16.78587288 76.32060893 20.25 72.6875 C22.106243 68.41007048 22.62197574 64.96242634 21.6875 60.375 C17.34462654 53.63605843 8.66415488 52.13146076 1.3203125 50.2265625 C-20.69539057 44.50280282 -20.69539057 44.50280282 -26.3125 35.375 C-29.24075477 29.20856568 -29.57748861 21.79445386 -27.6953125 15.21875 C-24.37773966 8.75975862 -17.93897075 3.64113595 -11.30444336 0.95507812 C-7.57302393 -0.13155658 -3.85955745 -0.06694876 0 0 Z " fill="#DB413E" transform="translate(634.3125,100.625)"/>
<path d="M0 0 C3.63 0 7.26 0 11 0 C11.0093457 1.66909424 11.01869141 3.33818848 11.02832031 5.05786133 C11.06404881 10.61402199 11.11797224 16.16981373 11.18390274 21.72569752 C11.223171 25.08952914 11.25545903 28.4531071 11.27099609 31.81713867 C11.29255778 35.69752261 11.33927925 39.57694056 11.390625 43.45703125 C11.39185364 44.64706253 11.39308228 45.83709381 11.39434814 47.06318665 C11.54629436 55.85041964 12.93746555 64.28081348 18.3125 71.5 C23.61481152 76.43238281 28.9235959 77.49700697 36 77.375 C36.67289063 77.38660156 37.34578125 77.39820313 38.0390625 77.41015625 C44.31286234 77.3738215 48.86388417 75.78837605 53.6875 71.75 C58.82810184 65.63685187 61.08405279 60.19081696 61.20532227 52.22167969 C61.22526749 51.0607782 61.24521271 49.89987671 61.26576233 48.70379639 C61.28247482 47.45576233 61.29918732 46.20772827 61.31640625 44.921875 C61.33718735 43.64016418 61.35796844 42.35845337 61.37937927 41.03790283 C61.43444747 37.63823728 61.48392364 34.23851262 61.53222656 30.83874512 C61.58255332 27.36640186 61.63818093 23.89414395 61.69335938 20.421875 C61.80075422 13.61465739 61.90224027 6.80736261 62 0 C65.3 0 68.6 0 72 0 C72.11660586 7.74601377 72.20507154 15.4918163 72.25906086 23.23849106 C72.28499271 26.83688432 72.32008219 30.43467072 72.37719727 34.03271484 C72.43211419 37.51465945 72.46154341 40.99602592 72.47438622 44.47837067 C72.48792158 46.43245033 72.52685661 48.38630212 72.56648254 50.34002686 C72.57019636 62.34088888 69.09783314 72.27199965 60.62109375 80.9296875 C51.38869073 88.22204756 38.25798011 88.24130468 27 87 C19.99057114 85.59360172 14.57729606 83.72162008 10 78 C9.03126953 77.14148438 9.03126953 77.14148438 8.04296875 76.265625 C5.49566677 73.4407012 4.5539074 70.8371583 3.3125 67.25 C2.89613281 66.07953125 2.47976563 64.9090625 2.05078125 63.703125 C-0.19310533 55.79530166 -0.13607601 48.00328337 -0.09765625 39.84375 C-0.09553383 38.12943787 -0.09553383 38.12943787 -0.09336853 36.38049316 C-0.08780025 32.75363475 -0.07525362 29.12683955 -0.0625 25.5 C-0.0574809 23.0312509 -0.05291871 20.56250082 -0.04882812 18.09375 C-0.03784121 12.06247589 -0.02059853 6.03124864 0 0 Z " fill="#DC4340" transform="translate(513,102)"/>
<path d="M0 0 C1.08137741 -0.00101212 1.08137741 -0.00101212 2.18460083 -0.00204468 C12.9851617 0.01404034 23.18897422 0.49468151 33.6875 3.25 C34.42548828 3.44287598 35.16347656 3.63575195 35.92382812 3.83447266 C43.13317971 5.75105382 50.07110819 7.71028183 56.6875 11.25 C56.21019162 12.7089426 55.73058958 14.16713496 55.25 15.625 C54.98316406 16.43710938 54.71632812 17.24921875 54.44140625 18.0859375 C53.6875 20.25 53.6875 20.25 52.6875 22.25 C47.54026296 21.22055259 42.65404373 19.95645349 37.6875 18.25 C23.5809968 13.47084463 9.5243255 12.91583726 -5.3125 13.25 C-6.90578125 13.25773438 -6.90578125 13.25773438 -8.53125 13.265625 C-39.16964595 14.28690487 -68.6145138 30.28046516 -89.3125 52.25 C-92.71462299 50.63617243 -95.41574519 48.66396234 -98.3125 46.25 C-97.55739956 39.35821028 -92.39217712 36.37001357 -87.3125 32.25 C-86.75111328 31.7864209 -86.18972656 31.3228418 -85.61132812 30.84521484 C-70.01624121 18.08986857 -52.91095976 8.97928068 -33.3125 4.25 C-31.57613281 3.79367188 -31.57613281 3.79367188 -29.8046875 3.328125 C-19.7740402 0.71572054 -10.32528589 0.0086267 0 0 Z " fill="#EEAD41" transform="translate(191.3125,149.75)"/>
<path d="M0 0 C3.82373108 0.4823514 6.56702396 2.49841275 9.75 4.5625 C25.97198488 14.77891872 43.25983415 21.88366299 62 26 C60.5460901 34.38136293 58.81951737 42.69087069 57 51 C32.09258862 45.8654376 6.77194009 36.43633162 -13 20 C-12.39487785 16.8970396 -11.41831819 14.88828407 -9.53125 12.36328125 C-8.79841797 11.37424805 -8.79841797 11.37424805 -8.05078125 10.36523438 C-7.53902344 9.68783203 -7.02726562 9.01042969 -6.5 8.3125 C-5.98824219 7.62349609 -5.47648437 6.93449219 -4.94921875 6.22460938 C-1.21660835 1.21660835 -1.21660835 1.21660835 0 0 Z " fill="#D7423C" transform="translate(98,416)"/>
<path d="M0 0 C2 0 2 0 4.23046875 2.13671875 C5.14441406 3.08160156 6.05835937 4.02648437 7 5 C9.08041441 6.96354465 11.1968308 8.88706108 13.3125 10.8125 C13.86228516 11.31458984 14.41207031 11.81667969 14.97851562 12.33398438 C16.31805239 13.55703968 17.65888992 14.77867008 19 16 C18.4225 16.86496094 17.845 17.72992188 17.25 18.62109375 C16.88390625 19.1713623 16.5178125 19.72163086 16.140625 20.28857422 C15.09808396 21.85283207 14.04935924 23.4129641 13 24.97265625 C8.22187071 32.35449272 5.13115834 39.43026277 3 48 C2.78730469 48.7321875 2.57460937 49.464375 2.35546875 50.21875 C0.29587318 57.92371183 0.34581949 66.07345328 0 74 C-8.3969326 75.37292913 -16.48627215 76.31274919 -25 76 C-25.78120454 47.76090273 -19.63663097 23.96411248 -1.6640625 1.6953125 C-1.11492187 1.13585937 -0.56578125 0.57640625 0 0 Z " fill="#D6413B" transform="translate(119,219)"/>
<path d="M0 0 C0.22042969 1.80017578 0.22042969 1.80017578 0.4453125 3.63671875 C2.71733245 20.97757691 6.67004189 37.39961937 14.58203125 53.06640625 C15.72963936 55.44065885 16.5158974 57.42859788 17 60 C17.66 60 18.32 60 19 60 C18.90234375 62.2734375 18.90234375 62.2734375 18 65 C15.12890625 66.9140625 15.12890625 66.9140625 11.5625 68.625 C6.53232329 70.93087558 6.53232329 70.93087558 3 75 C0.375 75.6875 0.375 75.6875 -2 76 C-5.14916591 70.45583736 -8.20833851 65.02370858 -10.30078125 58.98828125 C-11.05994803 56.82953326 -11.93111609 54.7367239 -12.8125 52.625 C-15.14163284 46.86536143 -17.05337324 40.97175968 -18.98168945 35.06884766 C-20.29240136 30.95586655 -20.29240136 30.95586655 -22 27 C-22.56420768 23.40317603 -23.0265819 19.79731304 -23.5 16.1875 C-23.81726565 13.11279898 -23.81726565 13.11279898 -25 11 C-25.06950541 9.45976004 -25.08452357 7.91665012 -25.0625 6.375 C-25.05347656 5.55773437 -25.04445313 4.74046875 -25.03515625 3.8984375 C-25.02355469 3.27195312 -25.01195312 2.64546875 -25 2 C-21.39603546 1.66445694 -17.79179755 1.33194526 -14.1875 1 C-13.16333984 0.90460938 -12.13917969 0.80921875 -11.08398438 0.7109375 C-9.60961914 0.57558594 -9.60961914 0.57558594 -8.10546875 0.4375 C-7.19949951 0.35371094 -6.29353027 0.26992188 -5.36010742 0.18359375 C-3 0 -3 0 0 0 Z " fill="#D6413B" transform="translate(34,302)"/>
<path d="M0 0 C1.84578705 -0.27277641 3.70351022 -0.46533217 5.5625 -0.625 C6.59503906 -0.74101563 7.62757813 -0.85703125 8.69140625 -0.9765625 C14.21656269 0.65423928 16.04277048 5.28831211 19 10 C20.28187606 11.91429487 21.58089486 13.81620529 22.88169861 15.71768188 C24.28799356 17.77338021 25.68531301 19.83490176 27.08007812 21.8984375 C27.54873291 22.59163086 28.0173877 23.28482422 28.50024414 23.99902344 C28.97453857 24.7005957 29.44883301 25.40216797 29.9375 26.125 C30.91724488 27.57296595 31.89706207 29.02088297 32.87695312 30.46875 C35.252135 33.97860393 37.6263412 37.48911588 40 41 C42.50464517 38.58906717 44.66062859 36.25174306 46.55859375 33.33984375 C47.02007813 32.63714355 47.4815625 31.93444336 47.95703125 31.21044922 C48.44558594 30.46037598 48.93414063 29.71030273 49.4375 28.9375 C49.95828125 28.15906738 50.4790625 27.38063477 51.015625 26.57861328 C53.86952252 22.30713242 56.61753354 17.99915526 59.25390625 13.58984375 C67.22153194 0.6074275 67.22153194 0.6074275 72.48828125 -1.19140625 C75.5658733 -1.18778981 78.06653087 -0.90382562 81 0 C79.4018112 4.84129708 76.65068895 8.5468917 73.6875 12.625 C72.60288842 14.13840765 71.51960433 15.65276737 70.4375 17.16796875 C69.87417969 17.95606934 69.31085938 18.74416992 68.73046875 19.55615234 C65.29911321 24.40207064 61.96981413 29.31807641 58.62963867 34.22705078 C57.87517456 35.3347583 57.87517456 35.3347583 57.10546875 36.46484375 C56.60845459 37.21507812 56.11144043 37.9653125 55.59936523 38.73828125 C54 41 54 41 52.09008789 43.15234375 C45.40736363 51.09982694 45.98963357 59.24311393 46.0625 69.125 C46.04936829 70.76565318 46.03311712 72.4062845 46.01367188 74.046875 C45.97314567 78.03190889 45.97483406 82.01486169 46 86 C42.37 86 38.74 86 35 86 C35.08024414 84.64358398 35.08024414 84.64358398 35.16210938 83.25976562 C36.19158118 61.41946589 34.40985374 47.80042795 19.99267578 30.41796875 C17.30353164 27.15488574 14.90808587 23.72178323 12.5 20.25 C11.35917969 18.6721875 11.35917969 18.6721875 10.1953125 17.0625 C7.87297774 13.82280169 5.60425593 10.55414672 3.375 7.25 C2.72273437 6.28578125 2.07046875 5.3215625 1.3984375 4.328125 C0 2 0 2 0 0 Z " fill="#DB403D" transform="translate(762,102)"/>
<path d="M0 0 C3.24352846 1.57261986 4.40878107 3.87630868 6.0625 7 C6.01953125 8.9609375 6.01953125 8.9609375 5.0625 11 C-3.21466481 17.49583322 -13.33251365 21.85022137 -22.9375 26 C-23.82566406 26.39058594 -24.71382813 26.78117187 -25.62890625 27.18359375 C-47.25597478 35.88180441 -77.65744446 39.32494977 -99.9375 32 C-99.6075 28.7 -99.2775 25.4 -98.9375 22 C-95.76369208 21.20654802 -93.88078891 20.89266315 -90.74584961 20.98168945 C-89.92656479 21.00113113 -89.10727997 21.02057281 -88.26316833 21.04060364 C-87.38097122 21.06458725 -86.49877411 21.08857086 -85.58984375 21.11328125 C-83.68427115 21.14547967 -81.77866997 21.17602086 -79.87304688 21.20507812 C-76.89788224 21.25386723 -73.92426874 21.31106483 -70.94995117 21.39770508 C-56.78985705 21.79266515 -45.14728179 20.16067737 -31.9375 15 C-30.21442627 14.35248779 -30.21442627 14.35248779 -28.45654297 13.69189453 C-20.79073616 10.73830824 -7.68660062 0 0 0 Z " fill="#EEAE43" transform="translate(265.9375,386)"/>
<path d="M0 0 C5.26122171 1.51031916 9.67232586 3.90374191 14.375 6.625 C15.11105469 7.04523438 15.84710938 7.46546875 16.60546875 7.8984375 C18.4063765 8.92752764 20.20357318 9.96310756 22 11 C19.89860841 16.9857821 16.04510216 21.20448136 12 26 C11.33226562 26.79277344 10.66453125 27.58554687 9.9765625 28.40234375 C0.906351 38.88865546 0.906351 38.88865546 -4 42 C-8.14040704 40.61986432 -9.62315784 37.70341184 -12 34.25 C-12.43828125 33.62867188 -12.8765625 33.00734375 -13.328125 32.3671875 C-15.69489465 28.98812481 -17.92832335 25.57091632 -20 22 C-19.2265625 21.33355469 -18.453125 20.66710937 -17.65625 19.98046875 C-10.70247645 13.86852663 -5.11310229 7.77492319 0 0 Z " fill="#D7413C" transform="translate(257,323)"/>
<path d="M0 0 C0 7.92 0 15.84 0 24 C-2.413125 24.268125 -4.82625 24.53625 -7.3125 24.8125 C-13.33757654 25.51641862 -18.98138478 26.61657172 -24.765625 28.51171875 C-27.34361042 29.07508969 -28.55101593 28.95314892 -31 28 C-32.18847656 26.28173828 -32.18847656 26.28173828 -33.140625 24.0703125 C-33.48867187 23.27496094 -33.83671875 22.47960937 -34.1953125 21.66015625 C-34.71738281 20.40525391 -34.71738281 20.40525391 -35.25 19.125 C-35.61351562 18.29613281 -35.97703125 17.46726563 -36.3515625 16.61328125 C-39 10.45018797 -39 10.45018797 -39 7 C-25.29228887 1.37081455 -14.67428851 -0.24871675 0 0 Z " fill="#D6403B" transform="translate(193,187)"/>
<path d="M0 0 C5.7234375 -0.12375 5.7234375 -0.12375 11.5625 -0.25 C12.75174072 -0.28641602 13.94098145 -0.32283203 15.16625977 -0.36035156 C21.67512732 -0.42829496 25.75429926 0.02709902 31 4 C32.98056268 7.96112536 32.55396686 12.69275203 32 17 C29.19864857 20.92189201 26.49047289 22.4931299 22 24 C19.4128418 24.22705078 19.4128418 24.22705078 16.69921875 24.1953125 C15.37796997 24.18781982 15.37796997 24.18781982 14.0300293 24.18017578 C12.37547729 24.15286377 12.37547729 24.15286377 10.6875 24.125 C5.3971875 24.063125 5.3971875 24.063125 0 24 C0 16.08 0 8.16 0 0 Z " fill="#FEFBFB" transform="translate(695,260)"/>
<path d="M0 0 C4.08378283 0.74250597 8.01939223 1.82923301 12 3 C11.7126705 4.83401808 11.41988417 6.66718144 11.125 8.5 C10.96257812 9.5209375 10.80015625 10.541875 10.6328125 11.59375 C10 15 10 15 8.98632812 18.7265625 C7.96872946 22.7645477 7.68686997 26.60937443 7.5859375 30.78125 C7.56657135 31.48020386 7.5472052 32.17915771 7.5272522 32.89929199 C7.4681785 35.09940964 7.42136527 37.29958172 7.375 39.5 C7.33675343 41.00522929 7.29769799 42.51043825 7.2578125 44.015625 C7.16253875 47.6768957 7.07824644 51.33832122 7 55 C3.98509443 56.00496852 1.95818308 56.10335303 -1.1875 56.0625 C-2.08855469 56.05347656 -2.98960938 56.04445313 -3.91796875 56.03515625 C-4.60503906 56.02355469 -5.29210938 56.01195312 -6 56 C-6.52269016 36.82330204 -6.52181585 18.30221296 0 0 Z " fill="#EFB047" transform="translate(63,243)"/>
<path d="M0 0 C3.155625 -0.0825 6.31125 -0.165 9.5625 -0.25 C10.5429126 -0.28641602 11.5233252 -0.32283203 12.53344727 -0.36035156 C18.57837938 -0.4363499 22.09002217 0.41268374 27 4 C29.84701905 8.27052857 29.48951706 11.99248123 29 17 C27.38514057 21.64272087 24.52578487 23.11796328 20.30859375 25.16650391 C16.3828539 26.58385541 12.62145639 26.42313181 8.5 26.25 C5.695 26.1675 2.89 26.085 0 26 C0 17.42 0 8.84 0 0 Z " fill="#FDF8F8" transform="translate(956,260)"/>
<path d="M0 0 C1.59765625 2.046875 1.59765625 2.046875 3.0625 4.75 C7.4360505 12.08689299 13.07092199 17.91768538 19 24 C19.86882812 24.8971875 20.73765625 25.794375 21.6328125 26.71875 C24.94422561 30.08480689 28.15906687 33.23932931 32 36 C30.47291037 39.43595166 28.40072955 42.11912454 26 45 C13.3104305 43.1574864 1.5095104 25.30385096 -5.79638672 15.62695312 C-12 7.24137931 -12 7.24137931 -12 3 C-4.66550491 -1.74584977 -4.66550491 -1.74584977 0 0 Z " fill="#EEAE43" transform="translate(88,349)"/>
<path d="M0 0 C12.37617083 5.5183792 20.05920326 23.56240224 25.5625 35.1875 C25.89693115 35.89382568 26.2313623 36.60015137 26.57592773 37.32788086 C28.18961358 40.85370589 29.45450096 44.15161637 30 48 C28.58603098 48.50757862 27.16868271 49.00574925 25.75 49.5 C24.96109375 49.7784375 24.1721875 50.056875 23.359375 50.34375 C21 51 21 51 17 51 C16.731875 50.15179688 16.46375 49.30359375 16.1875 48.4296875 C11.81034247 35.32701199 5.40527259 24.36210626 -3.1171875 13.5234375 C-4.7107323 11.38769074 -5.91926796 9.42311499 -7 7 C-4.66666667 4.66666667 -2.33333333 2.33333333 0 0 Z " fill="#EEAD41" transform="translate(293,195)"/>
<path d="M0 0 C1.43739513 -0.02712066 2.87493863 -0.04645067 4.3125 -0.0625 C5.51326172 -0.07990234 5.51326172 -0.07990234 6.73828125 -0.09765625 C9 0 9 0 12 1 C13.25101893 18.51426507 4.89370083 38.21025197 -4 53 C-8.51478398 52.46884894 -11.34666857 50.63379708 -15 48 C-13.81650687 45.01477106 -12.60740155 42.04113745 -11.37890625 39.07421875 C-11.08306641 38.35943359 -10.78722656 37.64464844 -10.48242188 36.90820312 C-9.87385612 35.43911764 -9.26449357 33.97036194 -8.65429688 32.50195312 C-7.75980109 30.33847634 -6.87864595 28.16995542 -6 26 C-5.72551025 25.34273926 -5.45102051 24.68547852 -5.16821289 24.00830078 C-3.12695782 18.92070888 -2.11872829 13.91010023 -1.3125 8.5 C-1.18294922 7.67757813 -1.05339844 6.85515625 -0.91992188 6.0078125 C-0.60574306 4.00637712 -0.30178543 2.00334158 0 0 Z " fill="#EEAE43" transform="translate(309,294)"/>
<path d="M0 0 C2.58008948 2.28402869 3.77456672 4.37374049 5.04296875 7.5625 C5.39423828 8.44164062 5.74550781 9.32078125 6.10742188 10.2265625 C6.64206055 11.59941406 6.64206055 11.59941406 7.1875 13 C7.73954102 14.37285156 7.73954102 14.37285156 8.30273438 15.7734375 C11 22.59917092 11 22.59917092 11 26 C4.07 26 -2.86 26 -10 26 C-6.625 15.875 -6.625 15.875 -5.17578125 12.40234375 C-4.86962891 11.66435547 -4.56347656 10.92636719 -4.24804688 10.16601562 C-3.93931641 9.43060547 -3.63058594 8.69519531 -3.3125 7.9375 C-2.83200195 6.78217773 -2.83200195 6.78217773 -2.34179688 5.60351562 C-1.56400964 3.73450451 -0.7824152 1.86707847 0 0 Z " fill="#FDF4F4" transform="translate(615,266)"/>
<path d="M0 0 C2.78223111 1.39111555 2.99685455 2.94746506 4.1640625 5.8046875 C4.56367187 6.78050781 4.96328125 7.75632812 5.375 8.76171875 C5.7875 9.78910156 6.2 10.81648438 6.625 11.875 C7.04523437 12.89464844 7.46546875 13.91429687 7.8984375 14.96484375 C11 22.60797991 11 22.60797991 11 26 C4.07 26 -2.86 26 -10 26 C-6.625 15.875 -6.625 15.875 -5.17578125 12.40234375 C-4.86962891 11.66435547 -4.56347656 10.92636719 -4.24804688 10.16601562 C-3.93931641 9.43060547 -3.63058594 8.69519531 -3.3125 7.9375 C-2.83200195 6.78217773 -2.83200195 6.78217773 -2.34179688 5.60351562 C-1.56400964 3.73450451 -0.7824152 1.86707847 0 0 Z " fill="#FDF6F6" transform="translate(641,404)"/>
<path d="M0 0 C1.60279191 0.0002511 3.20558923 0.00581279 4.80834961 0.01586914 C5.55435425 0.01687622 6.30035889 0.0178833 7.06896973 0.0189209 C9.86622649 0.0241685 12.6634614 0.03812966 15.46069336 0.05102539 C21.71006836 0.07165039 27.95944336 0.09227539 34.39819336 0.11352539 C34.39819336 12.98352539 34.39819336 25.85352539 34.39819336 39.11352539 C34.06819336 39.11352539 33.73819336 39.11352539 33.39819336 39.11352539 C33.39819336 26.90352539 33.39819336 14.69352539 33.39819336 2.11352539 C21.51819336 2.11352539 9.63819336 2.11352539 -2.60180664 2.11352539 C-2.60180664 7.06352539 -2.60180664 12.01352539 -2.60180664 17.11352539 C3.33819336 17.11352539 9.27819336 17.11352539 15.39819336 17.11352539 C15.39819336 21.40352539 15.39819336 25.69352539 15.39819336 30.11352539 C15.06819336 30.11352539 14.73819336 30.11352539 14.39819336 30.11352539 C14.39819336 26.15352539 14.39819336 22.19352539 14.39819336 18.11352539 C8.12819336 18.11352539 1.85819336 18.11352539 -4.60180664 18.11352539 C-4.62243164 15.32915039 -4.64305664 12.54477539 -4.66430664 9.67602539 C-4.67341064 8.79760986 -4.68251465 7.91919434 -4.69189453 7.01416016 C-4.69903755 5.04706565 -4.65212557 3.07998918 -4.60180664 1.11352539 C-3.60180664 0.11352539 -3.60180664 0.11352539 0 0 Z " fill="#E98987" transform="translate(1077.601806640625,415.886474609375)"/>
<path d="M0 0 C13.53 0 27.06 0 41 0 C41 5.94 41 11.88 41 18 C27.47 18 13.94 18 0 18 C0 17.67 0 17.34 0 17 C12.87 17 25.74 17 39 17 C39 12.05 39 7.1 39 2 C26.13 2 13.26 2 0 2 C0 1.34 0 0.68 0 0 Z " fill="#E36B69" transform="translate(1149,414)"/>
<path d="M0 0 C3.17538332 0.34021964 4.02276865 1.02466604 6.25 3.4375 C8 6 8 6 8 8 C11.34998521 6.88333826 11.79340222 6.25305075 13.6875 3.4375 C14.12449219 2.79683594 14.56148437 2.15617187 15.01171875 1.49609375 C15.33785156 1.00238281 15.66398438 0.50867188 16 0 C17.32 0.33 18.64 0.66 20 1 C19.48308594 1.56847656 18.96617187 2.13695312 18.43359375 2.72265625 C14.57005661 6.93490248 14.57005661 6.93490248 12.7578125 12.15625 C13.04578994 14.26346131 13.04578994 14.26346131 14 17 C13.01 16.67 12.02 16.34 11 16 C11 15.34 11 14.68 11 14 C10.01 14 9.02 14 8 14 C7.5978125 14.86625 7.5978125 14.86625 7.1875 15.75 C5.9611378 18.07363365 4.75156566 20.03824646 3 22 C2.01 22 1.02 22 0 22 C1.14817934 19.41659649 2.27524754 17.6932956 4.1875 15.5625 C6.22126322 13.19117023 6.22126322 13.19117023 6.0625 10.5625 C4.6218816 7.0880674 2.46276333 4.84165 0 2 C0 1.34 0 0.68 0 0 Z " fill="#C73020" transform="translate(859,420)"/>
<path d="M0 0 C1.77503906 0.03480469 1.77503906 0.03480469 3.5859375 0.0703125 C5.36871094 0.09738281 5.36871094 0.09738281 7.1875 0.125 C8.10273437 0.14820312 9.01796875 0.17140625 9.9609375 0.1953125 C9.6309375 0.8553125 9.3009375 1.5153125 8.9609375 2.1953125 C8.11523193 1.96908203 8.11523193 1.96908203 7.25244141 1.73828125 C3.56967495 1.20174853 0.55808265 1.13837287 -2.6505127 3.26171875 C-7.00432258 6.8768583 -10.8130557 11.06153574 -14.6640625 15.1953125 C-15.86873107 16.45018909 -17.07574325 17.7028203 -18.28515625 18.953125 C-21.23086491 22.00855358 -24.14292001 25.09289205 -27.0390625 28.1953125 C-27.6990625 27.8653125 -28.3590625 27.5353125 -29.0390625 27.1953125 C-28.56073975 26.72222656 -28.08241699 26.24914062 -27.58959961 25.76171875 C-25.3825091 23.57566844 -23.17952617 21.38552121 -20.9765625 19.1953125 C-20.22439453 18.45152344 -19.47222656 17.70773438 -18.69726562 16.94140625 C-14.44167229 12.7042354 -10.35558156 8.38820267 -6.45141602 3.82421875 C-3.32064027 0.21340876 -3.32064027 0.21340876 0 0 Z " fill="#E05955" transform="translate(748.0390625,101.8046875)"/>
<path d="M0 0 C0.66 0.33 1.32 0.66 2 1 C-2.62 5.62 -7.24 10.24 -12 15 C-12 10.09687565 -8.29800369 7.38658643 -5 4 C-3.37458956 2.61667196 -1.72614587 1.25537882 0 0 Z " fill="#E2625F" transform="translate(1049,385)"/>
<path d="M0 0 C0.66 0.33 1.32 0.66 2 1 C1.21753906 1.75925781 0.43507813 2.51851562 -0.37109375 3.30078125 C-1.39349196 4.30441986 -2.41561299 5.30834089 -3.4375 6.3125 C-3.95376953 6.81201172 -4.47003906 7.31152344 -5.00195312 7.82617188 C-7.40590176 10.19869635 -8.91656793 11.74970379 -10 15 C-10.8125 13.375 -10.8125 13.375 -11 11 C-7.8879465 6.56768138 -4.23110997 3.34552881 0 0 Z " fill="#F1BA5F" transform="translate(104,182)"/>
<path d="M0 0 C4.875 4.75 4.875 4.75 6 7 C3.03824877 6.38722388 1.61941217 5.74627478 -1 4 C-1 7.3 -1 10.6 -1 14 C-1.33 14 -1.66 14 -2 14 C-2 10.37 -2 6.74 -2 3 C-1.34 3 -0.68 3 0 3 C0 2.01 0 1.02 0 0 Z " fill="#D45247" transform="translate(873,435)"/>
<path d="M0 0 C0.66 0.33 1.32 0.66 2 1 C-1.63 4.63 -5.26 8.26 -9 12 C-9 8.47601214 -8.44884893 7.98495633 -6.1875 5.4375 C-5.40439453 4.53837891 -5.40439453 4.53837891 -4.60546875 3.62109375 C-3 2 -3 2 0 0 Z " fill="#F8D8D7" transform="translate(449,399)"/>
<path d="M0 0 C0.66 0.33 1.32 0.66 2 1 C-1.63 4.63 -5.26 8.26 -9 12 C-9 8.47601214 -8.44884893 7.98495633 -6.1875 5.4375 C-5.40439453 4.53837891 -5.40439453 4.53837891 -4.60546875 3.62109375 C-3 2 -3 2 0 0 Z " fill="#FCEFDA" transform="translate(172,254)"/>
<path d="M0 0 C0.66 0.33 1.32 0.66 2 1 C-2 5 -6 9 -10 13 C-10 9 -10 9 -8.3203125 7.1484375 C-7.23363281 6.27058594 -7.23363281 6.27058594 -6.125 5.375 C-5.40570313 4.78460938 -4.68640625 4.19421875 -3.9453125 3.5859375 C-3.30335938 3.06257812 -2.66140625 2.53921875 -2 2 C-1.34 1.34 -0.68 0.68 0 0 Z " fill="#DD5B56" transform="translate(324,167)"/>
<path d="M0 0 C0.66 0.33 1.32 0.66 2 1 C-1.3 4.3 -4.6 7.6 -8 11 C-8.66 10.67 -9.32 10.34 -10 10 C-7.02911382 6.00073014 -3.87051275 3.07881696 0 0 Z " fill="#E36A67" transform="translate(435,385)"/>
</svg>
