<?xml version="1.0" encoding="UTF-8"?>
<svg version="1.1" xmlns="http://www.w3.org/2000/svg" width="128" height="128">
<path d="M0 0 C42.24 0 84.48 0 128 0 C128 42.24 128 84.48 128 128 C85.76 128 43.52 128 0 128 C0 85.76 0 43.52 0 0 Z " fill="#FBFCFC" transform="translate(0,0)"/>
<path d="M0 0 C4.66788938 4.00104804 9.10610776 7.96718295 13.4140625 12.31640625 C13.99159271 12.89535141 14.56912292 13.47429657 15.16415405 14.07078552 C16.98682834 15.89899259 18.80597897 17.73065875 20.625 19.5625 C21.85132772 20.79385366 23.07788843 22.02497533 24.3046875 23.25585938 C26.55954918 25.51883317 28.81305241 27.78314046 31.06494141 30.04907227 C31.55858185 30.54535629 32.05222229 31.04164032 32.56082153 31.55296326 C33.96096921 32.96075609 35.36037808 34.3692836 36.75976562 35.77783203 C38.73146086 37.7336265 40.74613145 39.53255389 42.875 41.3125 C46.31484527 44.28854591 49.25826791 47.47596706 52.19921875 50.9375 C57.46209113 57.24941667 57.46209113 57.24941667 64 62 C62.64218786 65.0308418 61.11581436 67.13650673 58.77539062 69.48339844 C58.12131226 70.14378113 57.46723389 70.80416382 56.79333496 71.48455811 C56.08809692 72.18574768 55.38285889 72.88693726 54.65625 73.609375 C53.93135376 74.33618469 53.20645752 75.06299438 52.45959473 75.81182861 C50.92880989 77.34397279 49.39550303 78.87360075 47.85986328 80.40087891 C45.5018923 82.74811631 43.15480454 85.10585778 40.80859375 87.46484375 C39.32095364 88.95116282 37.83269356 90.43686169 36.34375 91.921875 C35.28589294 92.98580475 35.28589294 92.98580475 34.20666504 94.07122803 C33.55258667 94.71900208 32.8985083 95.36677612 32.22460938 96.03417969 C31.64884155 96.60835632 31.07307373 97.18253296 30.4798584 97.77410889 C29 99 29 99 27 99 C26.76925781 99.55816406 26.53851562 100.11632812 26.30078125 100.69140625 C24.65466491 103.61289201 22.58926868 105.60054666 20.1875 107.9375 C19.33542969 108.77152344 18.48335937 109.60554688 17.60546875 110.46484375 C16.74566406 111.30144531 15.88585937 112.13804688 15 113 C12.57360804 115.41228503 10.16371318 117.82693178 7.8125 120.3125 C6 122 6 122 4 122 C3.71125 122.639375 3.4225 123.27875 3.125 123.9375 C2 126 2 126 0 127 C0 85.09 0 43.18 0 0 Z " fill="#035945" transform="translate(0,1)"/>
<path d="M0 0 C31.35 0 62.7 0 95 0 C93.12975131 3.74049738 91.64017543 5.60348271 88.73388672 8.49316406 C87.41274368 9.81408051 87.41274368 9.81408051 86.06491089 11.16168213 C85.10327649 12.11310431 84.1415328 13.06441603 83.1796875 14.015625 C82.19561893 14.99596129 81.21199258 15.97674168 80.22879028 16.95794678 C77.64557286 19.53354467 75.05640488 22.10307857 72.46594238 24.67138672 C69.8213238 27.29551067 67.1823899 29.92533771 64.54296875 32.5546875 C59.36751928 37.7087167 54.18576878 42.85635157 49 48 C45.43188055 46.48269448 43.14279567 44.39063263 40.41503906 41.65795898 C39.51440735 40.7604039 38.61377563 39.86284882 37.68585205 38.93809509 C36.71226124 37.95760846 35.73885657 36.97693697 34.765625 35.99609375 C33.76279579 34.99207206 32.75959623 33.98842016 31.75604248 32.98512268 C29.65830228 30.88582091 27.56395797 28.78320894 25.47216797 26.67797852 C22.78480182 23.97356819 20.09084461 21.27584254 17.39456558 18.58032131 C15.32515323 16.51063778 13.25835158 14.43836418 11.19243622 12.36519051 C10.19942322 11.3689867 9.20579576 10.37339501 8.21155548 9.37841606 C6.82763889 7.99234338 5.4474117 6.60258996 4.06738281 5.21264648 C3.28002747 4.42147934 2.49267212 3.63031219 1.68145752 2.81517029 C0 1 0 1 0 0 Z " fill="#065C48" transform="translate(32,0)"/>
<path d="M0 0 C1.40260315 1.42384338 1.40260315 1.42384338 3.04907227 3.42016602 C7.19683389 8.29452329 11.66828078 12.77696353 16.21484375 17.27734375 C17.07058487 18.12929825 17.92632599 18.98125275 18.80799866 19.85902405 C21.51540568 22.55430293 24.22604754 25.24629126 26.9375 27.9375 C30.53277034 31.50629049 34.1247927 35.07830384 37.71484375 38.65234375 C38.54596176 39.47516342 39.37707977 40.29798309 40.23338318 41.14573669 C40.99159866 41.90064896 41.74981415 42.65556122 42.53100586 43.43334961 C43.20272324 44.09983017 43.87444061 44.76631073 44.56651306 45.45298767 C46 47 46 47 46 48 C14.65 48 -16.7 48 -49 48 C-42.24646637 40.12087743 -42.24646637 40.12087743 -38.58691406 36.44165039 C-37.36600067 35.21116722 -37.36600067 35.21116722 -36.12042236 33.95582581 C-35.26083923 33.09512985 -34.4012561 32.2344339 -33.515625 31.34765625 C-32.61882019 30.44752304 -31.72201538 29.54738983 -30.79803467 28.61997986 C-28.91336764 26.73027345 -27.02761953 24.84172033 -25.14013672 22.95483398 C-22.71841429 20.53321409 -20.30369818 18.1047315 -17.8905983 15.67452335 C-15.58258099 13.35276577 -13.26742749 11.0381463 -10.953125 8.72265625 C-10.08544495 7.84779068 -9.21776489 6.97292511 -8.3237915 6.07154846 C-7.52245789 5.27329147 -6.72112427 4.47503448 -5.89550781 3.65258789 C-5.18968567 2.94534073 -4.48386353 2.23809357 -3.75665283 1.50941467 C-2 0 -2 0 0 0 Z " fill="#045A46" transform="translate(81,80)"/>
<path d="M0 0 C3.69010391 1.84505196 4.93390823 2.78853119 7.4375 5.8125 C10.14137577 9.05589622 12.99413214 12.03288975 16 15 C17.16129251 16.17074901 18.32137044 17.34270359 19.48046875 18.515625 C20.71610709 19.76045512 21.95178482 21.00524615 23.1875 22.25 C23.81591797 22.88679688 24.44433594 23.52359375 25.09179688 24.1796875 C25.69443359 24.78554688 26.29707031 25.39140625 26.91796875 26.015625 C27.46219482 26.56508789 28.0064209 27.11455078 28.56713867 27.68066406 C29.9838063 29.10726152 29.9838063 29.10726152 32 30 C30.7237475 32.79425088 29.40029023 34.85142126 27.234375 37.02441406 C26.40341309 37.86483246 26.40341309 37.86483246 25.55566406 38.722229 C24.95979492 39.31404968 24.36392578 39.90587036 23.75 40.515625 C23.13608398 41.13145447 22.52216797 41.74728394 21.88964844 42.3817749 C20.59425517 43.67852646 19.29634356 44.97276657 17.99609375 46.26464844 C16.00024932 48.24975202 14.01533274 50.24533591 12.03125 52.2421875 C10.77147445 53.50064211 9.51107899 54.75847654 8.25 56.015625 C7.65413086 56.6155426 7.05826172 57.21546021 6.44433594 57.83355713 C2.22993247 62 2.22993247 62 0 62 C0 41.54 0 21.08 0 0 Z " fill="#1B483C" transform="translate(32,33)"/>
<path d="M0 0 C0 19.8 0 39.6 0 60 C-4.4543919 56.1819498 -8.60776397 52.51309612 -12.71484375 48.3828125 C-13.21544815 47.88079315 -13.71605255 47.3787738 -14.23182678 46.86154175 C-15.80278598 45.28506329 -17.37019877 43.70511427 -18.9375 42.125 C-20.01343727 41.04403726 -21.08960731 39.96330617 -22.16601562 38.8828125 C-24.78003292 36.25787359 -27.39088596 33.62981372 -30 31 C-28.34632885 26.72113402 -25.13020426 23.8599365 -21.93359375 20.703125 C-21.33950211 20.10949158 -20.74541046 19.51585815 -20.13331604 18.90423584 C-18.88071283 17.65464684 -17.62568693 16.40748226 -16.3684082 15.16259766 C-14.43574928 13.24826588 -12.51128287 11.32598142 -10.58789062 9.40234375 C-9.37026394 8.1896298 -8.15218082 6.97737392 -6.93359375 5.765625 C-6.3544371 5.18758118 -5.77528046 4.60953735 -5.17857361 4.01397705 C-1.11606324 0 -1.11606324 0 0 0 Z " fill="#035A46" transform="translate(128,34)"/>
<path d="M0 0 C31.35 0 62.7 0 95 0 C94.67 0.99 94.34 1.98 94 3 C93.01 2.505 93.01 2.505 92 2 C89.13168448 1.90665568 86.28781736 1.87425189 83.41943359 1.88647461 C82.53156662 1.88632858 81.64369965 1.88618256 80.72892761 1.8860321 C77.78540631 1.88673045 74.84194779 1.89451919 71.8984375 1.90234375 C69.86105382 1.90420821 67.82366969 1.90563198 65.7862854 1.90663147 C60.41702034 1.91045445 55.04778223 1.92028289 49.67852783 1.93133545 C44.2023556 1.94155426 38.72617902 1.9461301 33.25 1.95117188 C22.49998815 1.96190533 11.74999631 1.97897915 1 2 C0.67 1.34 0.34 0.68 0 0 Z " fill="#1A6856" transform="translate(32,0)"/>
<path d="M0 0 C0.66 0.66 1.32 1.32 2 2 C-0.97 4.475 -0.97 4.475 -4 7 C-4 4 -4 4 -2 1.8125 C-1.34 1.214375 -0.68 0.61625 0 0 Z " fill="#45645C" transform="translate(53,72)"/>
</svg>
